<?xml version="1.0" encoding="UTF-8"?><svg id="_레이어_1" xmlns="http://www.w3.org/2000/svg" viewBox="0 0 76 192"><defs><style>.cls-1{fill:#fff;}</style></defs><path class="cls-1" d="M17.96,170.35c1.66,0,3.27,.07,4.88-.02,1.29-.07,2.61-.21,3.86-.54,4.65-1.21,7.42-4.67,8.16-9.77,.84-5.75,.37-11.52,.49-17.28,.03-1.61-.07-3.22-.08-4.83-.07-13.98-.1-18.78-.23-32.76-.04-4.64-1.81-8.76-4.41-12.54-.45-.65-.9-1.29-1.35-1.94-.62-.89-.52-1.68,.22-2.5,1.1-1.23,2.2-2.47,3.13-3.82,2.5-3.6,3.77-7.54,2.84-11.96-.2-.96-.57-1.9-.96-2.82-.51-1.2-1.34-2.07-2.54-2.7-3.7-1.94-7.64-3.03-11.77-3.43-3.54-.34-4.27-1.04-4.51-4.63-.15-2.28-1.11-2.99-3.37-3.51-2.12-.49-4.15-1.46-4.92-3.86-.4-1.27-.87-2.53-1.25-3.81-1.13-3.82-3.11-7.15-5.72-10.12-.55-.62-.62-1.14,0-1.77,3.53-3.53,5.96-7.72,6.93-12.62,.62-3.17,2.08-5.03,5.45-5.32,1.85-.16,2.68-1.35,2.85-3.23,0-.1,.01-.21,.02-.31,.18-3.38,1.15-4.36,4.49-4.59,6.34-.42,11.95-2.63,16.68-6.92,.81-.74,1.36-.73,2.17,0,4.86,4.37,10.58,6.62,17.09,6.91,2.6,.12,3.77,1.28,4.04,3.98,.05,.55,.07,1.1,.18,1.64,.25,1.32,1.27,2.28,2.61,2.39,2.01,.17,3.45,1.39,4.88,2.61,.2,.17,.31,.52,.33,.8,.49,5.7,2.87,10.46,7.04,14.35,1.01,.94,1.06,1.22,.04,2.14-3.77,3.4-5.62,7.78-6.63,12.62-.13,.64-.27,1.28-.42,1.91-.48,1.97-1.15,2.57-3.13,2.86-.58,.08-1.16,.15-1.74,.22-1.86,.2-2.78,1.06-3.05,2.89-.1,.68-.09,1.37-.2,2.05-.37,2.24-1.49,3.2-3.75,3.32-3.94,.22-7.68,1.18-11.3,2.79-2,.89-3.01,2.37-3.59,4.32-1.42,4.78-.6,9.24,2.01,13.4,1.11,1.77,2.35,3.46,3.57,5.16,.41,.58,.41,1.03-.05,1.55-.73,.82-1.49,1.62-2.15,2.49-2.7,3.59-3.53,7.75-3.55,12.13-.08,18.89-.16,28.61-.21,47.5-.03,11.27-.07,22.53,0,33.8,.02,2.75-1.95,3.47-3.94,3.07-1.11-.22-1.66-1.06-1.82-2.56-.12-1.16-.19-2.33-.45-3.46-1.19-5.13-5.17-8.3-10.45-8.38-1.68-.03-3.36-.03-5.04,0-.91,.01-1.43-.31-1.41-1.3,.02-1.12,0-2.24,0-3.62ZM61.85,36.78c-.11-4.71-1.26-8.91-4.1-12.54-4.4-5.63-11.35-7.03-17.17-3.18-1.7,1.13-3.54,1.13-5.23,0-5.85-3.88-12.77-2.4-17.11,3.08-5.52,6.98-5.53,17.84-.04,24.82,4.36,5.55,11.15,6.9,16.83,3.3,1.99-1.26,3.88-1.26,5.86,0,4.88,3.07,10.54,2.62,14.83-1.21,4.3-3.84,5.94-8.84,6.13-14.27ZM41.85,15c-.01-2.08-1.8-3.88-3.87-3.89-2.13-.01-3.94,1.8-3.93,3.93,.01,2.14,1.85,3.93,3.97,3.89,2.09-.04,3.84-1.83,3.82-3.93Z"/></svg>