<svg width="44" height="44" viewBox="0 0 44 44" fill="none" xmlns="http://www.w3.org/2000/svg">
<g clip-path="url(#clip0_424_10085)">
<path d="M5.9629 17.4527C6.12039 17.3986 6.27486 17.3294 6.43001 17.2599C6.5282 17.216 6.62667 17.1719 6.72634 17.1314C6.79432 17.1033 6.86298 17.0759 6.93192 17.0483C7.09935 16.9814 7.26846 16.9139 7.43354 16.8342M5.9629 17.4527L8.58273 16.264C8.20502 16.4567 7.81928 16.6495 7.43354 16.8342M5.9629 17.4527C5.78612 17.5133 5.603 17.558 5.41951 17.6028C5.31105 17.6292 5.20246 17.6558 5.09498 17.6856L5.9629 17.4527ZM7.43354 16.8342L7.58471 17.1499C7.58483 17.1498 7.58494 17.1498 7.58506 17.1497C7.58525 17.1496 7.58544 17.1495 7.58563 17.1495L7.43354 16.8342ZM9.65289 16.0865C9.65285 16.0865 9.6528 16.0865 9.65275 16.0865L9.46699 15.7905L9.65289 16.0865ZM9.65289 16.0865C9.92634 15.9148 10.1916 15.7323 10.4474 15.5563C10.5219 15.505 10.5957 15.4543 10.6686 15.4045L10.6694 15.4039C10.7626 15.3399 10.8587 15.2753 10.9561 15.2097C11.2461 15.0146 11.5491 14.8108 11.8293 14.5869C12.1012 14.3746 12.3474 14.122 12.5741 13.8895C12.6403 13.8216 12.7049 13.7554 12.7679 13.6924L12.7679 13.6924L12.7723 13.6879C12.9134 13.5417 13.0593 13.3941 13.2069 13.2449C13.5083 12.9399 13.8168 12.6279 14.1058 12.3064C14.4544 11.9247 14.7676 11.5206 15.073 11.119C15.4106 10.6772 15.7569 10.2162 16.0636 9.72737L16.0652 9.72485C16.2701 9.39198 16.4478 9.03555 16.6175 8.69499C16.6689 8.59185 16.7196 8.49016 16.7701 8.39102L16.4582 8.23216M9.65289 16.0865L17.3421 7.22231L17.0208 7.08361C16.8801 7.41182 16.7169 7.72886 16.5548 8.04404C16.5225 8.1068 16.4903 8.16948 16.4582 8.23216M16.4582 8.23216C16.4047 8.33735 16.352 8.443 16.2994 8.54857C16.131 8.8863 15.963 9.22315 15.7671 9.54134M16.4582 8.23216L15.7671 9.54134M26.2652 6.0926C26.1805 5.87459 26.1137 5.6332 26.0535 5.41572C26.0293 5.3281 26.0061 5.24436 25.9833 5.16759C25.9503 5.05675 25.9145 4.94194 25.878 4.82457C25.796 4.56131 25.71 4.28518 25.6417 4.01204C25.5924 3.8149 25.5565 3.61463 25.5232 3.42833C25.5188 3.40386 25.5145 3.37962 25.5102 3.35567C25.472 3.14398 25.4346 2.94977 25.3802 2.76492L25.3801 2.76448C25.2883 2.45079 25.1662 2.15293 25.0031 1.93782L25.0021 1.93647C24.8071 1.67662 24.5668 1.45778 24.2972 1.2124C24.2345 1.15532 24.1703 1.0968 24.1046 1.036C23.6835 0.649889 23.151 0.455002 22.5727 0.396161L26.2647 6.09138C26.2649 6.09178 26.265 6.09219 26.2652 6.0926ZM26.2652 6.0926C26.3969 6.43947 26.5429 6.7805 26.6858 7.11443C26.7379 7.23609 26.7896 7.3568 26.84 7.47651L26.8401 7.47683L26.8425 7.48233C26.9935 7.83999 27.1505 8.21142 27.3332 8.56834L27.3331 8.56836L27.3356 8.57298C27.5491 8.97523 27.7865 9.3678 28.0179 9.75063L28.0202 9.75453L28.0202 9.75455L28.023 9.75904C28.1883 10.0233 28.3619 10.2794 28.5439 10.5275L28.5438 10.5275L28.5461 10.5305C28.649 10.6677 28.7523 10.8075 28.8565 10.9486C29.183 11.3908 29.5193 11.8461 29.8861 12.2748L29.8869 12.2758C30.3468 12.8093 30.8469 13.3172 31.3707 13.7917C31.8729 14.2524 32.414 14.6621 32.9398 15.0603L32.9452 15.0643C32.9455 15.0645 32.9457 15.0647 32.9459 15.0648C33.3871 15.4016 33.8517 15.7503 34.3453 16.043M26.2652 6.0926L42.7437 19.5994C42.3585 19.1505 41.8595 18.8496 41.2927 18.6305L41.2914 18.63C41.1406 18.571 40.97 18.5336 40.7749 18.5006C40.7136 18.4902 40.6464 18.4798 40.5764 18.469C40.4401 18.448 40.2934 18.4253 40.1595 18.398L40.1508 18.3962L40.1508 18.3961C40.1235 18.3898 40.0969 18.3863 40.0515 18.3802C40.0436 18.3792 40.0352 18.3781 40.0261 18.3768C39.9719 18.3695 39.8954 18.3586 39.8138 18.3336M34.3453 16.043C34.3452 16.0429 34.3451 16.0429 34.345 16.0428L34.5238 15.7419L34.3453 16.043ZM34.3453 16.043C34.807 16.3172 35.2974 16.5596 35.77 16.7933C35.8795 16.8474 35.9881 16.9011 36.0951 16.9546L36.0988 16.9564C36.1762 16.9939 36.2539 17.0318 36.332 17.0698C36.7993 17.2975 37.2794 17.5314 37.7713 17.7352M37.7713 17.7352C37.942 17.808 38.1158 17.8515 38.2697 17.8864C38.3096 17.8954 38.3477 17.9038 38.3843 17.9119C38.4979 17.9368 38.5981 17.9589 38.6993 17.989L38.6993 17.989L38.7058 17.9908C38.9366 18.0546 39.1554 18.1248 39.3805 18.197C39.5209 18.2421 39.6639 18.288 39.8138 18.3336M37.7713 17.7352C37.7719 17.7354 37.7725 17.7356 37.7731 17.7359L37.907 17.4125M37.7713 17.7352C37.7706 17.7349 37.7699 17.7345 37.7692 17.7342L37.907 17.4125M39.8138 18.3336C39.8139 18.3336 39.8141 18.3337 39.8142 18.3337L39.9161 17.9988L39.8132 18.3334C39.8134 18.3334 39.8136 18.3335 39.8138 18.3336ZM37.907 17.4125C37.4252 17.213 36.9551 16.984 36.4867 16.7559C36.4083 16.7177 36.3299 16.6795 36.2515 16.6415L37.907 17.4125ZM15.7671 9.54134C15.4698 10.0152 15.1323 10.465 14.7947 10.9068C14.4894 11.3083 14.184 11.7019 13.8465 12.0714C13.5625 12.3873 13.2643 12.6889 12.966 12.9906C12.8169 13.1414 12.6678 13.2922 12.5205 13.4448C12.4505 13.5148 12.3814 13.5856 12.3123 13.6564L15.7671 9.54134ZM5.14137 25.8912L5.14133 25.8914C5.48272 26.0051 5.8231 26.1266 6.15352 26.2474C6.15415 26.2476 6.15479 26.2479 6.15543 26.2481L6.1571 26.2487C6.42689 26.3438 6.71068 26.4439 6.99613 26.5698L6.99701 26.5702C7.36552 26.7339 7.7163 26.9051 8.07114 27.0825C8.19618 27.1439 8.32788 27.2057 8.46294 27.2692C8.81177 27.433 9.183 27.6074 9.51969 27.8117L9.52056 27.8122C10.115 28.1753 10.6731 28.5858 11.2135 28.9969C11.7583 29.4114 12.2964 29.8513 12.8111 30.3167C13.2343 30.6982 13.6141 31.119 13.9799 31.5244L13.9851 31.5302C14.3042 31.8818 14.6104 32.2454 14.8934 32.6364L14.8956 32.6394C15.2672 33.1643 15.6345 33.7023 15.9704 34.2592L15.9705 34.2593C16.0058 34.3179 16.0413 34.3767 16.0769 34.4357C16.4431 35.042 16.8195 35.6654 17.1417 36.3169L17.1427 36.3189C17.3755 36.7976 17.5516 37.3064 17.72 37.793C17.7632 37.9177 17.8058 38.041 17.8488 38.1619L17.8491 38.1629C17.8908 38.2812 17.9365 38.4037 17.9833 38.5297C18.149 38.9748 18.3305 39.4625 18.4109 39.9576C18.505 40.5298 18.6291 41.0693 18.8202 41.5967C18.9893 42.0538 19.2642 42.4167 19.6307 42.7391C19.971 43.0377 20.2349 43.26 20.5818 43.3343C20.7578 43.3715 20.9266 43.4509 21.05 43.509C21.0677 43.5173 21.0845 43.5252 21.1003 43.5325C21.2487 43.601 21.3335 43.63 21.402 43.6319L21.4031 43.6319C21.4731 43.634 21.5414 43.6365 21.6083 43.639C22.0747 43.656 22.4707 43.6705 22.8935 43.5358L22.8957 43.5351C23.4925 43.3492 23.9965 43.1203 24.4064 42.7318L24.4072 42.731C24.8237 42.3388 25.1397 41.9872 25.2364 41.5107L25.2372 41.5069C25.2889 41.2656 25.3586 41.02 25.4241 40.7894C25.453 40.6873 25.4812 40.5881 25.5066 40.4935L25.508 40.4881L25.5081 40.4881C25.6207 40.094 25.7323 39.7036 25.8358 39.3138L25.8359 39.3134C25.869 39.1892 25.8976 39.0657 25.9276 38.9358C25.9397 38.8834 25.9521 38.8299 25.9651 38.7749C26.0089 38.5896 26.0584 38.3944 26.1249 38.204L26.1259 38.2011C26.2299 37.9112 26.3608 37.6196 26.4852 37.3425C26.5474 37.2039 26.608 37.0689 26.6628 36.9396C26.7058 36.835 26.7492 36.7194 26.7947 36.5981C26.9067 36.2995 27.0317 35.9665 27.1957 35.6807C27.642 34.886 28.1206 34.1079 28.6233 33.3542L28.6239 33.3533C29.026 32.7546 29.468 32.1821 29.9329 31.6358C30.0913 31.4469 30.2643 31.2789 30.4291 31.1234C30.4608 31.0934 30.4922 31.0639 30.5231 31.0349C30.6567 30.9094 30.7826 30.7912 30.903 30.6647L30.9059 30.6616C31.8448 29.6986 32.8875 28.8953 34.0052 28.1778L34.0064 28.177C34.4526 27.8932 34.8992 27.6254 35.362 27.3656C35.647 27.1982 35.9464 27.0488 36.2432 26.9168C36.3848 26.8511 36.5292 26.8035 36.6554 26.7628C36.6665 26.7592 36.6774 26.7557 36.6882 26.7522C36.8063 26.7142 36.908 26.6814 37.0061 26.6405C37.0999 26.5996 37.1981 26.5539 37.3003 26.5064C37.6905 26.3249 38.1388 26.1165 38.6196 26.0458L38.6449 26.0421H38.6513L38.656 26.0409L38.6721 26.0366C38.6801 26.0345 38.6908 26.0317 38.7031 26.0289C38.8148 25.9951 38.9277 25.9603 39.0415 25.9252C39.3469 25.8309 39.6587 25.7346 39.9714 25.6521L39.9759 25.6509L39.9759 25.6509C40.1775 25.6005 40.3798 25.561 40.5719 25.5233L40.5761 25.5225C40.7725 25.4841 40.9585 25.4476 41.1411 25.4019L41.1501 25.3997L41.1501 25.3998L41.1537 25.399C41.3908 25.3464 41.5574 25.3094 41.6765 25.2323C41.8924 25.0883 42.0852 24.927 42.2942 24.7522C42.3956 24.6673 42.5009 24.5792 42.6144 24.4885C43.2899 23.9438 43.5011 23.1656 43.636 22.246C43.6814 21.9196 43.6115 21.5889 43.5132 21.1713L43.497 21.1029L43.5048 21.0566C43.3622 20.5 43.1125 20.032 42.7444 19.6001L5.14137 25.8912ZM5.14137 25.8912L5.13215 25.8884M5.14137 25.8912L5.13215 25.8884M5.13215 25.8884C4.86778 25.8084 4.58187 25.724 4.29231 25.6643C4.10899 25.6237 3.92191 25.591 3.74359 25.5599C3.70224 25.5527 3.66137 25.5456 3.62112 25.5384C3.40228 25.4997 3.19566 25.46 2.99625 25.4047M5.13215 25.8884L2.99625 25.4047M2.99625 25.4047C2.24874 25.1899 1.63118 24.8028 1.14277 24.1835L2.99625 25.4047ZM0.473556 21.2636C0.516255 21.0144 0.567084 20.7929 0.651633 20.5934L1.14273 24.1835C0.638908 23.5431 0.395048 22.8335 0.351668 22.0086C0.381482 21.8552 0.406589 21.6911 0.430237 21.5366C0.444982 21.4403 0.45916 21.3477 0.473556 21.2636ZM22.6622 26.726C23.225 26.726 23.6792 26.2723 23.6792 25.7094V18.2398C23.6792 17.6768 23.225 17.2232 22.6622 17.2232H21.3523C20.7896 17.2232 20.3353 17.6768 20.3353 18.2398V25.7094C20.3353 26.2723 20.7896 26.726 21.3523 26.726H22.6622Z" stroke="white" stroke-width="0.7"/>
</g>
<defs>
<clipPath id="clip0_424_10085">
<rect width="44" height="44" fill="white"/>
</clipPath>
</defs>
</svg>
