<?xml version="1.0" encoding="UTF-8"?><svg id="_레이어_1" xmlns="http://www.w3.org/2000/svg" viewBox="0 0 44 44"><defs><style>.cls-1{fill:#fff;}</style></defs><path class="cls-1" d="M21.82,.74c.22,0,.46,.02,.73,.05,.54,.05,.99,.23,1.33,.55l.14,.13c.27,.24,.52,.47,.71,.72,.16,.21,.26,.51,.32,.72,.06,.2,.1,.41,.14,.64,.04,.19,.07,.39,.12,.58,.07,.28,.15,.55,.24,.82l.11,.35c.03,.09,.05,.18,.08,.27,.06,.23,.13,.45,.21,.67,.16,.42,.34,.83,.51,1.24l.07,.16,.08,.18c.13,.31,.27,.62,.43,.93,.22,.42,.45,.81,.7,1.21,.17,.27,.35,.54,.54,.8l.3,.4c.33,.45,.68,.92,1.06,1.37,.45,.53,.96,1.05,1.51,1.55,.49,.45,1.02,.85,1.54,1.24l.07,.05c.42,.32,.91,.69,1.43,1,.51,.3,1.04,.56,1.55,.81l.23,.11c.54,.27,1.11,.55,1.69,.79,.23,.1,.46,.15,.67,.2,.1,.02,.2,.04,.3,.07,.2,.06,.4,.12,.6,.19,.17,.05,.34,.11,.51,.16,.1,.03,.2,.05,.3,.06h.08c.13,.04,.27,.06,.4,.08,.25,.04,.48,.07,.66,.14,.59,.23,1.01,.51,1.31,.87,.35,.41,.57,.85,.7,1.38,.08,.33,.16,.67,.12,.94-.13,.91-.33,1.56-.89,2.02-.1,.08-.21,.17-.31,.26-.21,.17-.4,.34-.6,.47-.05,.03-.21,.07-.31,.09l-.1,.02c-.17,.04-.33,.07-.5,.1-.23,.04-.45,.09-.68,.15-.3,.08-.6,.17-.9,.26l-.43,.12c-.52,.08-.96,.28-1.36,.47-.11,.05-.23,.11-.34,.15-.1,.04-.2,.08-.31,.11-.15,.05-.31,.1-.45,.17-.3,.13-.61,.29-.92,.47-.53,.3-.96,.56-1.37,.82-1.23,.79-2.27,1.61-3.16,2.53-.11,.12-.23,.22-.35,.33-.22,.2-.44,.41-.65,.66-.54,.65-.97,1.21-1.33,1.75-.48,.72-.97,1.51-1.44,2.34-.17,.3-.28,.6-.39,.9-.05,.13-.1,.27-.15,.4-.06,.14-.12,.28-.19,.42-.12,.27-.25,.55-.36,.85-.09,.26-.15,.52-.21,.77-.03,.12-.06,.24-.09,.37-.06,.24-.13,.48-.2,.72l-.13,.45-.08,.27c-.07,.25-.15,.51-.2,.76-.08,.37-.32,.66-.73,1.04-.32,.3-.74,.52-1.38,.72-.21,.07-.45,.1-.76,.1-.15,0-.29,0-.44,0h-.17s-.16-.07-.24-.1c-.14-.07-.32-.15-.52-.19-.28-.06-.52-.27-.8-.52-.35-.31-.58-.63-.71-1-.17-.48-.3-.98-.39-1.57-.08-.52-.26-1.01-.44-1.47-.05-.13-.09-.25-.14-.38l-.12-.33c-.18-.51-.36-1.03-.61-1.54-.35-.72-.77-1.4-1.18-2.08-.33-.54-.69-1.09-1.09-1.64-.25-.34-.54-.69-.93-1.13-.33-.37-.75-.83-1.2-1.24-.49-.44-1.02-.88-1.62-1.34-.67-.51-1.2-.88-1.72-1.2-.36-.22-.72-.39-1.08-.56-.13-.06-.27-.12-.4-.19l-.16-.08c-.31-.15-.62-.3-.93-.44-.22-.1-.45-.18-.68-.26l-.18-.06-.18-.06c-.28-.1-.57-.21-.86-.3-.3-.1-.6-.18-.88-.24-.18-.04-.36-.07-.55-.1-.26-.04-.51-.09-.73-.15-.7-.2-1.25-.56-1.68-1.1-.44-.55-.66-1.16-.71-1.93,.03-.14,.05-.28,.07-.42,.05-.32,.1-.63,.2-.87,.32-.76,.81-1.28,1.44-1.55,.29-.12,.62-.2,.97-.27,.21-.05,.42-.09,.62-.15,.25-.07,.49-.15,.74-.22,.18-.06,.36-.11,.54-.17,.11-.03,.22-.06,.33-.09,.19-.05,.38-.09,.56-.16,.2-.07,.4-.15,.59-.24l.22-.1,.21-.09c.18-.07,.35-.14,.52-.23,.39-.19,.78-.38,1.16-.58l.17-.09c.25-.13,.5-.26,.76-.41,.29-.18,.57-.37,.85-.56l.19-.13,.3-.2c.3-.2,.6-.4,.89-.64,.29-.24,.55-.5,.79-.75l.17-.17,.22-.22c.38-.38,.76-.77,1.13-1.17,.38-.41,.71-.85,.99-1.21,.3-.4,.68-.9,1-1.42,.21-.34,.39-.7,.56-1.04l.16-.32,.1-.2c.16-.32,.33-.65,.48-.99,.14-.32,.25-.65,.37-.97l.11-.32,.03-.08c.12-.33,.24-.65,.35-.99,.09-.27,.18-.56,.25-.87,.04-.18,.07-.37,.1-.55,.04-.25,.08-.49,.14-.7,.08-.27,.2-.53,.34-.74,.23-.33,.45-.58,.68-.74,.18-.14,.43-.25,.68-.37,.11-.05,.22-.1,.33-.16,.21-.11,.46-.15,.79-.15m-.48,26.35h1.31c.75,0,1.37-.61,1.37-1.36v-7.45c0-.75-.61-1.36-1.37-1.36h-1.31c-.75,0-1.37,.61-1.37,1.36v7.45c0,.75,.61,1.36,1.37,1.36M21.82,.04c-.37,0-.75,.05-1.1,.23-.38,.19-.79,.34-1.13,.59-.32,.24-.6,.57-.83,.9-.2,.28-.35,.61-.44,.95-.12,.42-.15,.87-.24,1.3-.06,.27-.14,.53-.23,.8-.12,.35-.24,.7-.37,1.05-.15,.42-.29,.84-.47,1.25-.17,.39-.37,.77-.56,1.15-.22,.44-.43,.89-.69,1.3-.3,.47-.63,.92-.97,1.36-.3,.4-.61,.79-.95,1.16-.43,.47-.88,.92-1.33,1.37-.29,.3-.58,.61-.9,.87-.36,.29-.76,.54-1.14,.8-.33,.23-.66,.46-1.01,.67-.29,.17-.59,.32-.89,.47-.38,.19-.76,.39-1.15,.57-.23,.11-.47,.2-.71,.3-.26,.11-.51,.23-.77,.32-.28,.09-.58,.15-.87,.23-.43,.12-.85,.27-1.28,.38-.56,.15-1.14,.23-1.67,.45-.87,.37-1.45,1.08-1.81,1.92-.18,.5-.21,1.04-.31,1.55,.04,.91,.3,1.7,.87,2.41,.54,.68,1.22,1.11,2.04,1.34,.43,.12,.88,.17,1.32,.26,.27,.06,.54,.13,.81,.22,.34,.11,.67,.23,1.01,.36,.27,.1,.55,.19,.82,.31,.36,.16,.71,.33,1.06,.5,.48,.23,.97,.44,1.42,.71,.57,.35,1.12,.75,1.66,1.16s1.07,.84,1.57,1.3c.41,.37,.78,.78,1.15,1.19,.31,.34,.61,.7,.88,1.07,.37,.52,.73,1.05,1.06,1.59,.41,.66,.81,1.33,1.15,2.03,.28,.58,.48,1.19,.69,1.8,.2,.57,.45,1.14,.55,1.73,.09,.59,.23,1.14,.43,1.7,.19,.52,.51,.93,.91,1.28,.33,.29,.66,.58,1.11,.68,.3,.07,.59,.29,.88,.3,.21,0,.42,.02,.64,.02,.32,0,.64-.03,.97-.13,.62-.2,1.18-.44,1.65-.88,.42-.39,.81-.81,.93-1.41,.07-.34,.18-.66,.27-.99,.11-.39,.22-.79,.33-1.18,.1-.36,.16-.73,.28-1.09,.15-.42,.36-.83,.53-1.24s.3-.84,.51-1.22c.44-.78,.91-1.55,1.41-2.3,.39-.59,.83-1.15,1.28-1.69,.29-.34,.64-.63,.96-.95,.91-.93,1.94-1.73,3.04-2.43,.44-.28,.89-.55,1.34-.81,.28-.16,.56-.31,.85-.43,.24-.11,.51-.17,.75-.28,.5-.21,.98-.49,1.53-.57,.04,0,.08-.01,.12-.03,.42-.13,.84-.26,1.27-.37,.39-.1,.78-.16,1.17-.25,.22-.05,.46-.09,.64-.21,.34-.23,.64-.51,.96-.76,.79-.63,1.02-1.53,1.15-2.46,.06-.4-.03-.8-.13-1.21-.15-.64-.43-1.18-.85-1.67-.43-.51-.99-.83-1.59-1.07-.37-.15-.79-.17-1.19-.25-.1-.02-.21-.03-.31-.06-.37-.11-.74-.24-1.12-.35-.3-.09-.61-.12-.89-.24-.56-.24-1.11-.5-1.65-.77-.58-.29-1.17-.57-1.73-.9-.48-.28-.92-.62-1.36-.95-.53-.4-1.06-.8-1.55-1.25-.51-.47-1-.96-1.45-1.49-.47-.55-.89-1.15-1.33-1.73-.18-.24-.35-.49-.5-.74-.23-.38-.47-.77-.67-1.17-.18-.35-.33-.71-.48-1.07-.2-.45-.39-.91-.57-1.37-.11-.29-.18-.6-.27-.9-.11-.38-.24-.76-.34-1.14-.1-.42-.15-.85-.27-1.26-.1-.33-.23-.67-.44-.94-.27-.35-.61-.64-.94-.94-.49-.45-1.1-.67-1.74-.73-.26-.02-.53-.05-.79-.05h0v.03Zm-.47,26.35c-.37,0-.67-.3-.67-.66v-7.45c0-.37,.3-.66,.67-.66h1.31c.37,0,.67,.3,.67,.66v7.45c0,.37-.3,.66-.67,.66,0,0-1.31,0-1.31,0Z"/></svg>