<svg width="23" height="23" viewBox="0 0 23 23" fill="none" xmlns="http://www.w3.org/2000/svg">
<mask id="mask0_143_5337" style="mask-type:alpha" maskUnits="userSpaceOnUse" x="0" y="0" width="23" height="23">
<rect width="23" height="23" fill="#D9D9D9"/>
</mask>
<g mask="url(#mask0_143_5337)">
<path d="M11.5 20.125C11.2285 20.125 11.0009 20.0332 10.8172 19.8495C10.6335 19.6658 10.5417 19.4382 10.5417 19.1667V12.4583H3.83333C3.56181 12.4583 3.3342 12.3665 3.15052 12.1828C2.96684 11.9991 2.875 11.7715 2.875 11.5C2.875 11.2285 2.96684 11.0009 3.15052 10.8172C3.3342 10.6335 3.56181 10.5417 3.83333 10.5417H10.5417V3.83333C10.5417 3.56181 10.6335 3.3342 10.8172 3.15052C11.0009 2.96684 11.2285 2.875 11.5 2.875C11.7715 2.875 11.9991 2.96684 12.1828 3.15052C12.3665 3.3342 12.4583 3.56181 12.4583 3.83333V10.5417H19.1667C19.4382 10.5417 19.6658 10.6335 19.8495 10.8172C20.0332 11.0009 20.125 11.2285 20.125 11.5C20.125 11.7715 20.0332 11.9991 19.8495 12.1828C19.6658 12.3665 19.4382 12.4583 19.1667 12.4583H12.4583V19.1667C12.4583 19.4382 12.3665 19.6658 12.1828 19.8495C11.9991 20.0332 11.7715 20.125 11.5 20.125Z" fill="#303030"/>
</g>
</svg>
