<svg width="27" height="26" viewBox="0 0 27 26" fill="none" xmlns="http://www.w3.org/2000/svg">
<mask id="mask0_108_6840" style="mask-type:alpha" maskUnits="userSpaceOnUse" x="0" y="0" width="27" height="26">
<rect x="0.5" width="26" height="26" fill="#D9D9D9"/>
</mask>
<g mask="url(#mask0_108_6840)">
<path d="M8.68756 23.2916C7.77269 23.2916 6.99188 22.9683 6.34513 22.3215C5.69838 21.6748 5.375 20.894 5.375 19.9791V6.22915C5.375 5.25144 5.71733 4.42016 6.402 3.73531C7.08685 3.05065 7.91813 2.70831 8.89583 2.70831H19.6666C20.2052 2.70831 20.6663 2.90006 21.0498 3.28356C21.4333 3.66706 21.625 4.12811 21.625 4.66671V17.8186C21.625 17.9472 21.575 18.0638 21.475 18.1683C21.3749 18.2727 21.2132 18.3728 20.9896 18.4686C20.6744 18.5811 20.4202 18.7726 20.227 19.0431C20.0339 19.3136 19.9374 19.6256 19.9374 19.9791C19.9374 20.3263 20.0322 20.6378 20.2218 20.9135C20.4114 21.1892 20.6638 21.3812 20.9791 21.4895C21.1833 21.57 21.342 21.6831 21.4552 21.8286C21.5684 21.974 21.625 22.1297 21.625 22.2958V22.4624C21.625 22.6917 21.5471 22.8872 21.3913 23.049C21.2356 23.2108 21.0427 23.2916 20.8125 23.2916H8.68756ZM10.188 16.6668C10.4182 16.6668 10.6111 16.5889 10.7667 16.4331C10.9222 16.2774 10.9999 16.0845 10.9999 15.8543V5.14581C10.9999 4.9156 10.922 4.72259 10.7662 4.56677C10.6104 4.41113 10.4174 4.33331 10.1872 4.33331C9.95678 4.33331 9.76385 4.41113 9.6084 4.56677C9.45276 4.72259 9.37494 4.9156 9.37494 5.14581V15.8543C9.37494 16.0845 9.45285 16.2774 9.60867 16.4331C9.76449 16.5889 9.95759 16.6668 10.188 16.6668ZM8.68756 21.6666H18.8105C18.6534 21.4207 18.5312 21.1593 18.4438 20.8823C18.3562 20.6052 18.3124 20.3041 18.3124 19.9791C18.3124 19.6694 18.3534 19.3722 18.4354 19.0875C18.5174 18.8028 18.6424 18.5374 18.8105 18.2915H8.68756C8.20422 18.2915 7.80212 18.4556 7.48127 18.7839C7.16042 19.112 7 19.5104 7 19.9791C7 20.4624 7.16042 20.8645 7.48127 21.1854C7.80212 21.5062 8.20422 21.6666 8.68756 21.6666Z" fill="#4A4A4A"/>
</g>
</svg>
