<svg width="25" height="25" viewBox="0 0 25 25" fill="none" xmlns="http://www.w3.org/2000/svg">
<mask id="mask0_108_1487" style="mask-type:alpha" maskUnits="userSpaceOnUse" x="0" y="0" width="25" height="25">
<rect x="25" y="25" width="25" height="25" transform="rotate(-180 25 25)" fill="#D9D9D9"/>
</mask>
<g mask="url(#mask0_108_1487)">
<path d="M11.5141 12.5L15.7571 16.7427C15.9012 16.887 15.975 17.0683 15.9785 17.2867C15.9817 17.5049 15.908 17.6896 15.7571 17.8406C15.6061 17.9915 15.4231 18.0669 15.2081 18.0669C14.9932 18.0669 14.8102 17.9915 14.6592 17.8406L9.97767 13.1591C9.88028 13.0615 9.81152 12.9587 9.77142 12.8505C9.73132 12.7424 9.71126 12.6255 9.71126 12.5C9.71126 12.3745 9.73132 12.2576 9.77142 12.1495C9.81152 12.0413 9.88028 11.9385 9.97767 11.8409L14.6592 7.15937C14.8035 7.01527 14.9848 6.94149 15.2032 6.93802C15.4214 6.93472 15.6061 7.0085 15.7571 7.15937C15.908 7.31041 15.9834 7.4934 15.9834 7.70833C15.9834 7.92326 15.908 8.10625 15.7571 8.25729L11.5141 12.5Z" fill="#1A1A1A"/>
</g>
</svg>
