<svg width="27" height="26" viewBox="0 0 27 26" fill="none" xmlns="http://www.w3.org/2000/svg">
<mask id="mask0_116_1508" style="mask-type:alpha" maskUnits="userSpaceOnUse" x="0" y="0" width="27" height="26">
<rect x="0.5" width="26" height="26" fill="#D9D9D9"/>
</mask>
<g mask="url(#mask0_116_1508)">
<path d="M13.4999 22.4792C13.2695 22.4792 13.0766 22.4013 12.9211 22.2455C12.7655 22.0898 12.6877 21.8969 12.6877 21.6667V13.8813C11.6016 13.8813 10.5606 13.6758 9.5647 13.2646C8.56894 12.8535 7.68909 12.266 6.92516 11.5021C6.16141 10.7381 5.57849 9.85828 5.17639 8.86252C4.77429 7.86675 4.57324 6.82576 4.57324 5.73954V5.07302C4.57324 4.79857 4.66605 4.56846 4.85166 4.38267C5.03727 4.19705 5.26739 4.10425 5.54201 4.10425H6.20853C7.2711 4.10425 8.29991 4.31153 9.29495 4.72608C10.2902 5.14064 11.1697 5.72988 11.9334 6.49381C12.5002 7.06058 12.9651 7.6936 13.3282 8.39289C13.6915 9.09219 13.9516 9.8349 14.1085 10.621C14.2334 10.4044 14.3726 10.1991 14.5261 10.0052C14.6796 9.81143 14.8508 9.62013 15.0399 9.43127C15.8014 8.6686 16.6815 8.07972 17.68 7.66462C18.6784 7.24935 19.7191 7.04171 20.8021 7.04171H21.4689C21.7434 7.04171 21.9734 7.1346 22.159 7.32039C22.3448 7.506 22.4377 7.73603 22.4377 8.01048V8.677C22.4377 9.76015 22.23 10.801 21.8148 11.7994C21.3997 12.7979 20.8108 13.6779 20.0481 14.4395C19.2842 15.2034 18.4089 15.7865 17.4221 16.1886C16.4352 16.5907 15.3987 16.7917 14.3127 16.7917V21.6667C14.3127 21.8969 14.2348 22.0898 14.079 22.2455C13.9231 22.4013 13.7301 22.4792 13.4999 22.4792Z" fill="#4A4A4A"/>
</g>
</svg>
