<svg width="44" height="44" viewBox="0 0 44 44" fill="none" xmlns="http://www.w3.org/2000/svg">
<g clip-path="url(#clip0_424_10084)">
<path d="M40.4337 3.90078L40.4336 3.90068C38.2566 1.69209 35.6562 0.450049 32.5895 0.356559C29.0791 0.254964 26.2251 1.45473 23.9478 3.78688C23.9477 3.78692 23.9477 3.78696 23.9477 3.787L23.6972 3.54248C22.7893 4.47463 21.2948 4.49874 20.3869 3.57462L40.4337 3.90078ZM40.4337 3.90078C44.4318 7.95354 44.9757 15.3689 40.5095 20.0838H40.5019L40.3987 20.1909C39.4077 21.219 39.4093 22.8793 40.3976 23.914L40.3987 23.9151C44.9509 28.6394 44.5581 36.1821 40.0845 40.5626L40.0843 40.5627C36.1545 44.4152 28.5263 45.0001 23.8665 40.262C22.8084 39.1851 21.0869 39.2267 20.0543 40.3048C17.4758 42.9847 14.1273 43.9753 10.131 43.5584C7.41192 43.2717 5.17319 41.9488 3.33153 39.911L3.33148 39.9109C-0.645347 35.5125 -0.748351 28.5207 3.65389 23.9306L3.65427 23.9302C4.66691 22.8709 4.61162 21.2032 3.6141 20.1598L3.61342 20.1591C-1.06589 15.292 -0.490542 7.68843 3.99467 3.4679C8.42411 -0.696815 15.5985 -0.797348 20.1372 3.81991L40.4337 3.90078ZM22.6527 26.7544C23.2157 26.7544 23.6696 26.3003 23.6696 25.7374V18.2641C23.6696 17.7012 23.2157 17.2471 22.6527 17.2471H21.343C20.7801 17.2471 20.3262 17.7012 20.3262 18.2641V25.7374C20.3262 26.3003 20.7801 26.7544 21.343 26.7544H22.6527Z" stroke="white" stroke-width="0.7"/>
</g>
<defs>
<clipPath id="clip0_424_10084">
<rect width="44" height="44" fill="white"/>
</clipPath>
</defs>
</svg>
