<?xml version="1.0" encoding="UTF-8"?><svg id="Short-term_Goal" xmlns="http://www.w3.org/2000/svg" viewBox="0 0 44 44"><defs><style>.cls-1{fill:#fff;}</style></defs><path class="cls-1" d="M11.9,.7c3.02,0,5.86,1.2,7.99,3.37,.57,.58,1.32,.89,2.13,.89s1.6-.33,2.18-.92c2.16-2.21,4.84-3.33,7.97-3.33,.14,0,.27,0,.41,0,2.89,.09,5.45,1.24,7.61,3.44,3.72,3.78,4.6,11.03-.03,15.8-1.12,1.16-1.13,3.05,0,4.21,4.33,4.5,4.19,11.75-.31,16.16-1.93,1.89-4.75,2.97-7.74,2.97s-5.91-1.16-7.99-3.27c-.56-.57-1.32-.89-2.12-.89s-1.62,.34-2.19,.93c-2.1,2.18-4.7,3.24-7.96,3.24-.54,0-1.1-.03-1.68-.09-2.48-.26-4.69-1.45-6.58-3.53-3.96-4.38-3.83-11.19,.31-15.51,1.13-1.18,1.12-3.05-.04-4.25C1.75,17.72,.63,14.82,.71,11.75c.08-3.07,1.36-6,3.52-8.03C6.31,1.77,9.03,.7,11.9,.7m9.45,26.4h1.31c.75,0,1.37-.61,1.37-1.37v-7.47c0-.75-.61-1.37-1.37-1.37h-1.31c-.75,0-1.37,.61-1.37,1.37v7.47c0,.75,.61,1.37,1.37,1.37M11.9,0C8.94,0,6,1.1,3.76,3.21-.87,7.56-1.46,15.39,3.36,20.4c.88,.92,.92,2.37,.04,3.28-4.53,4.72-4.43,11.92-.33,16.46,1.89,2.09,4.2,3.46,7.02,3.76,.6,.06,1.18,.09,1.75,.09,3.33,0,6.19-1.08,8.46-3.45,.46-.48,1.07-.72,1.69-.72s1.18,.22,1.63,.68c2.36,2.4,5.46,3.48,8.48,3.48s6.16-1.15,8.23-3.17c4.6-4.51,5.01-12.27,.32-17.14-.86-.9-.86-2.35,0-3.24,4.71-4.86,4.18-12.56,.03-16.78C38.45,1.39,35.77,.1,32.6,0c-.14,0-.29,0-.43,0C28.76,0,25.95,1.24,23.7,3.55c-.46,.47-1.07,.71-1.68,.71s-1.18-.23-1.63-.68C18.02,1.16,14.95,0,11.9,0h0Zm9.45,26.4c-.37,0-.67-.3-.67-.67v-7.47c0-.37,.3-.67,.67-.67h1.31c.37,0,.67,.3,.67,.67v7.47c0,.37-.3,.67-.67,.67h-1.31Z"/></svg>