<svg width="74" height="29" viewBox="0 0 74 29" fill="none" xmlns="http://www.w3.org/2000/svg">
<path d="M12.6535 0.239244C11.2248 1.83972 9.4837 2.73286 7.28862 2.90457C6.79869 2.94301 6.30489 3.85281 5.96026 4.4461C5.85096 4.63446 5.82138 4.86896 5.80981 5.11884C5.79309 5.49172 5.4999 5.79926 5.12441 5.81848C3.91436 5.88255 2.88947 6.16959 2.81875 7.69831C2.70559 10.1125 1.88002 12.1845 0.191603 14.0079C-0.0642957 14.2847 -0.0642957 14.7127 0.194175 14.9882C1.92632 16.8334 2.71845 18.9721 2.84318 21.4196C2.89848 22.5024 3.58259 23.0739 4.67562 23.1405C4.84665 23.1508 5.01768 23.1662 5.18614 23.1828C5.50762 23.2148 5.76866 23.4545 5.8291 23.771C6.21488 25.8046 6.40777 25.7866 8.76872 26.3799C9.76789 26.6311 10.7066 27.2218 11.5913 27.7843C12.0067 28.047 12.3552 28.4122 12.7011 28.7749C12.9647 29.0516 13.3981 29.076 13.6925 28.8325C15.6561 27.209 15.9133 27.1718 19.1539 26.1236C19.7158 25.9417 20.1427 25.1459 20.4822 24.5488C20.5864 24.3643 20.6121 24.1349 20.6172 23.8914C20.6262 23.5121 20.922 23.202 21.3026 23.1802C22.4342 23.1149 23.4591 22.924 23.5671 21.5734C23.7176 19.7025 24.1677 17.9906 25.1038 16.4772C25.2851 16.3555 25.4407 16.2376 25.6529 16.1376C27.5844 15.2266 29.8425 15.7904 31.8472 17.6843C32.6394 18.4314 32.9544 18.5352 34.0127 17.742C35.4812 16.6412 37.2095 15.9992 38.7565 15.9826C45.6169 15.9057 48.0422 15.9095 52.4452 15.9172C53.4662 15.9185 54.5965 15.9211 55.9159 15.9224C56.0059 15.9147 56.0998 15.9095 56.1975 15.9083C56.2425 15.9083 56.2927 15.9083 56.348 15.907L56.348 15.866L58.5083 15.866C59.4355 15.866 60.0694 15.866 60.4706 15.8673C60.6764 15.8673 60.8217 15.8673 60.9168 15.8698C61.201 15.8724 61.4544 15.9108 61.6781 15.9787C62.6631 16.0454 63.3781 16.1953 64.0275 16.5374C65.9577 17.5536 65.9744 19.5923 65.9847 20.9416C65.9911 21.713 66.0413 22.1039 66.0837 22.2961C66.2354 22.3255 66.5145 22.3614 67.0005 22.3691C67.9071 22.3832 68.3199 22.2153 68.4202 22.1128C68.6414 21.8899 68.6131 20.8955 68.5977 20.3599C68.5938 20.2292 68.59 20.1023 68.5887 19.9793C68.5887 19.9409 68.5887 19.9024 68.5887 19.864C68.5887 17.4562 69.9273 16.0454 72.368 15.889L72.4824 15.8852C73.4662 15.8737 73.7285 15.3957 73.8147 15.2381C74.0834 14.7473 74.0577 14.0361 73.7517 13.5505C73.4803 13.1186 73.0315 12.9239 72.3796 12.9559L72.2716 12.9585L68.3958 12.9521C54.6724 12.9316 54.1362 12.9303 38.5147 12.8572C37.7805 12.8547 35.9069 12.7278 34.4538 11.5989L34.3432 11.513L34.2455 11.4131C33.5279 10.6891 33.128 10.5571 33.0341 10.5661C32.7872 10.593 32.2176 11.012 31.8022 11.3183C30.5626 12.2332 28.6877 13.6171 25.9937 12.8291L25.8548 12.788L25.7224 12.7291C25.4227 12.5958 25.2208 12.519 24.9932 12.3601C24.1317 10.93 23.706 9.34363 23.6122 7.6022C23.5543 6.52069 22.8843 5.94278 21.7913 5.86718C21.5971 5.85436 21.4042 5.83514 21.2062 5.81592C20.868 5.78132 20.5889 5.51991 20.5568 5.18162C20.5568 5.18034 20.5568 5.17778 20.5568 5.1765C20.3755 3.24158 20.1273 3.07115 18.2537 2.70851C17.2288 2.50989 16.1975 2.10881 15.2948 1.58472C14.7187 1.25027 14.2416 0.746681 13.7144 0.214897C13.4186 -0.0823904 12.9338 -0.0695749 12.6548 0.243087L12.6535 0.239244ZM4.15868 14.4974C4.15868 13.9234 4.62547 13.4582 5.20157 13.4582C5.77766 13.4582 6.24445 13.9234 6.24445 14.4974C6.24445 15.0715 5.77766 15.5367 5.20157 15.5367C4.62547 15.5367 4.15868 15.0715 4.15868 14.4974ZM19.3943 10.9556C19.3943 11.7911 19.1307 12.5779 18.6652 13.266C18.1585 14.0156 18.1585 14.9793 18.6652 15.7276C19.1307 16.4157 19.3943 17.2025 19.3943 18.038C19.3943 20.7456 16.6296 22.9406 13.2193 22.9406C9.80904 22.9406 7.0443 20.7456 7.0443 18.038C7.0443 17.2025 7.30791 16.4157 7.77342 15.7276C8.28007 14.978 8.28007 14.0144 7.77342 13.266C7.30791 12.5779 7.0443 11.7911 7.0443 10.9556C7.0443 8.24803 9.80904 6.05298 13.2193 6.05298C16.6296 6.05298 19.3943 8.24803 19.3943 10.9556Z" fill="black"/>
</svg>
