<svg width="24" height="24" viewBox="0 0 24 24" fill="none" xmlns="http://www.w3.org/2000/svg">
<mask id="mask0_143_5361" style="mask-type:alpha" maskUnits="userSpaceOnUse" x="0" y="0" width="24" height="24">
<rect width="24" height="24" fill="#D9D9D9"/>
</mask>
<g mask="url(#mask0_143_5361)">
<path d="M8.82353 21C7.20812 21 5.83368 20.4333 4.70021 19.2998C3.56674 18.1663 3 16.7919 3 15.1765V8.82353C3 7.20812 3.56674 5.83368 4.70021 4.70021C5.83368 3.56673 7.20812 3 8.82353 3H15.1765C16.7919 3 18.1663 3.56673 19.2998 4.70021C20.4333 5.83368 21 7.20812 21 8.82353V15.1765C21 16.7919 20.4333 18.1663 19.2998 19.2998C18.1663 20.4333 16.7919 21 15.1765 21H8.82353ZM10.9412 13.6372L9.16976 11.8655C9.02312 11.7191 8.83879 11.6441 8.61679 11.6405C8.39497 11.6372 8.20729 11.7122 8.05377 11.8655C7.90041 12.0191 7.82374 12.2051 7.82374 12.4235C7.82374 12.642 7.90041 12.828 8.05377 12.9815L10.2712 15.199C10.4627 15.3903 10.686 15.4859 10.9412 15.4859C11.1964 15.4859 11.4197 15.3903 11.6111 15.199L16.3698 10.4404C16.5162 10.2937 16.5912 10.1094 16.5948 9.88738C16.5981 9.66556 16.5231 9.47788 16.3698 9.32435C16.2162 9.171 16.0302 9.09432 15.8118 9.09432C15.5933 9.09432 15.4073 9.171 15.2538 9.32435L10.9412 13.6372Z" fill="#354035"/>
</g>
</svg>
