<?xml version="1.0" encoding="UTF-8"?><svg id="To-Do_Task" xmlns="http://www.w3.org/2000/svg" viewBox="0 0 44 44"><defs><style>.cls-1{fill:#fff;}</style></defs><path class="cls-1" d="M33.11,1.7c4.56,0,8.48,2.9,9.77,7.21,1.53,5.13-1.28,10.71-6.25,12.45l-1.87,.65,1.87,.67c3,1.08,5.34,3.55,6.26,6.61,1.59,5.34-1.38,10.98-6.63,12.57-.85,.26-1.81,.4-2.79,.41-1.51,.02-3.18,.03-5.23,.03-1.04,0-2.09,0-3.13,0-1.04,0-2.08,0-3.12,0h-3.56s-3.33,0-3.33,0h-4.38c-4.93,0-9.17-3.57-9.87-8.3-.66-4.52,1.27-8.62,5.05-10.7,.44-.24,.92-.46,1.42-.64l1.86-.66-1.86-.66c-3.47-1.23-5.95-4.18-6.47-7.72C.17,9.1,2.1,5,5.88,2.91c1.43-.79,3-1.19,4.68-1.19,2.04,0,4.08,0,6.12,.02,2.38,0,4.76,.02,7.14,.02,3.52,0,6.42-.02,9.13-.05h.15m0-.7c-.05,0-.11,0-.16,0-3.04,.04-6.08,.05-9.12,.05-4.42,0-8.84-.03-13.26-.03,0,0,0,0,0,0-1.79,0-3.46,.42-5.01,1.27C1.48,4.54-.57,8.89,.14,13.72c.57,3.87,3.31,7,6.93,8.28-.52,.18-1.03,.41-1.52,.68C1.48,24.92-.57,29.27,.14,34.09c.75,5.09,5.26,8.9,10.56,8.9,1.46,0,2.92,0,4.38,0,2.22,0,4.44,0,6.66,0,.08,0,.15,0,.23,0,2.08,0,4.17,0,6.25,0,1.75,0,3.5,0,5.24-.03,1-.01,2.04-.15,2.99-.44,5.62-1.71,8.78-7.77,7.09-13.44-.98-3.28-3.45-5.91-6.69-7.07,5.37-1.87,8.34-7.78,6.69-13.31-1.33-4.46-5.42-7.71-10.44-7.71h0Z"/></svg>