<svg width="27" height="27" viewBox="0 0 27 27" fill="none" xmlns="http://www.w3.org/2000/svg">
<mask id="mask0_144_5385" style="mask-type:alpha" maskUnits="userSpaceOnUse" x="0" y="0" width="27" height="27">
<rect width="27" height="27" fill="#D9D9D9"/>
</mask>
<g mask="url(#mask0_144_5385)">
<path d="M7.875 19.6875C6.15619 19.6875 4.69528 19.0862 3.49228 17.8836C2.28909 16.6809 1.6875 15.2206 1.6875 13.5025C1.6875 11.7845 2.28909 10.3233 3.49228 9.11897C4.69528 7.91466 6.15619 7.3125 7.875 7.3125H19.125C20.8438 7.3125 22.3047 7.91381 23.5077 9.11644C24.7109 10.3191 25.3125 11.7794 25.3125 13.4975C25.3125 15.2155 24.7109 16.6767 23.5077 17.881C22.3047 19.0853 20.8438 19.6875 19.125 19.6875H7.875ZM7.87359 16.5938C8.73272 16.5938 9.46331 16.2931 10.0654 15.6918C10.6676 15.0905 10.9688 14.3603 10.9688 13.5014C10.9688 12.6423 10.6681 11.9117 10.0668 11.3096C9.46547 10.7074 8.73534 10.4062 7.87641 10.4062C7.01728 10.4062 6.28669 10.7069 5.68462 11.3082C5.08238 11.9095 4.78125 12.6397 4.78125 13.4986C4.78125 14.3577 5.08191 15.0883 5.68322 15.6904C6.28453 16.2926 7.01466 16.5938 7.87359 16.5938Z" fill="#E5E5EA"/>
</g>
</svg>
