<svg width="21" height="21" viewBox="0 0 21 21" fill="none" xmlns="http://www.w3.org/2000/svg">
<mask id="mask0_431_17518" style="mask-type:alpha" maskUnits="userSpaceOnUse" x="0" y="0" width="21" height="21">
<rect width="21" height="21" fill="#D9D9D9"/>
</mask>
<g mask="url(#mask0_431_17518)">
<path d="M8.35635 13.5761L15.915 6.01737C16.0451 5.88714 16.1974 5.82064 16.3718 5.81787C16.5462 5.8151 16.7013 5.8816 16.8371 6.01737C16.9728 6.15314 17.0407 6.30904 17.0407 6.48506C17.0407 6.66123 16.9728 6.8172 16.8371 6.95297L8.91 14.8936C8.75177 15.0517 8.56722 15.1307 8.35635 15.1307C8.14547 15.1307 7.96092 15.0517 7.80269 14.8936L4.14957 11.2405C4.01948 11.1102 3.95532 10.9557 3.95707 10.7767C3.95867 10.5979 4.02736 10.4406 4.16313 10.3049C4.2989 10.1691 4.4548 10.1012 4.63082 10.1012C4.80698 10.1012 4.96295 10.1691 5.09872 10.3049L8.35635 13.5761Z" fill="white"/>
</g>
</svg>
