<svg width="21" height="21" viewBox="0 0 21 21" fill="none" xmlns="http://www.w3.org/2000/svg">
<mask id="mask0_144_5393" style="mask-type:alpha" maskUnits="userSpaceOnUse" x="0" y="0" width="21" height="21">
<rect width="21" height="21" fill="#D9D9D9"/>
</mask>
<g mask="url(#mask0_144_5393)">
<path d="M4.64428 18.8125C4.20226 18.8125 3.82812 18.6594 3.52188 18.3531C3.21563 18.0469 3.0625 17.6728 3.0625 17.2307V5.51929C3.0625 5.07727 3.21563 4.70314 3.52188 4.39689C3.82812 4.09064 4.20226 3.93751 4.64428 3.93751H5.85572V2.75955C5.85572 2.56777 5.91996 2.40765 6.04844 2.27917C6.17692 2.15084 6.33704 2.08667 6.52881 2.08667C6.72073 2.08667 6.88085 2.15084 7.00919 2.27917C7.13767 2.40765 7.20191 2.56777 7.20191 2.75955V3.93751H13.8318V2.74292C13.8318 2.55669 13.8946 2.40072 14.0201 2.27501C14.1458 2.14945 14.3018 2.08667 14.488 2.08667C14.6743 2.08667 14.8302 2.14945 14.9557 2.27501C15.0814 2.40072 15.1443 2.55669 15.1443 2.74292V3.93751H16.3557C16.7977 3.93751 17.1719 4.09064 17.4781 4.39689C17.7844 4.70314 17.9375 5.07727 17.9375 5.51929V17.2307C17.9375 17.6728 17.7844 18.0469 17.4781 18.3531C17.1719 18.6594 16.7977 18.8125 16.3557 18.8125H4.64428ZM4.64428 17.5H16.3557C16.4231 17.5 16.4848 17.4719 16.5408 17.4158C16.5969 17.3598 16.625 17.2981 16.625 17.2307V9.01929H4.375V17.2307C4.375 17.2981 4.40307 17.3598 4.45922 17.4158C4.51522 17.4719 4.57691 17.5 4.64428 17.5ZM10.5 12.3174C10.2858 12.3174 10.1032 12.2419 9.95225 12.091C9.80146 11.9402 9.72606 11.7576 9.72606 11.5432C9.72606 11.329 9.80146 11.1464 9.95225 10.9955C10.1032 10.8447 10.2858 10.7693 10.5 10.7693C10.7142 10.7693 10.8968 10.8447 11.0478 10.9955C11.1985 11.1464 11.2739 11.329 11.2739 11.5432C11.2739 11.7576 11.1985 11.9402 11.0478 12.091C10.8968 12.2419 10.7142 12.3174 10.5 12.3174ZM7 12.3174C6.78577 12.3174 6.60319 12.2419 6.45225 12.091C6.30146 11.9402 6.22606 11.7576 6.22606 11.5432C6.22606 11.329 6.30146 11.1464 6.45225 10.9955C6.60319 10.8447 6.78577 10.7693 7 10.7693C7.21423 10.7693 7.39681 10.8447 7.54775 10.9955C7.69854 11.1464 7.77394 11.329 7.77394 11.5432C7.77394 11.7576 7.69854 11.9402 7.54775 12.091C7.39681 12.2419 7.21423 12.3174 7 12.3174ZM14 12.3174C13.7858 12.3174 13.6032 12.2419 13.4523 12.091C13.3015 11.9402 13.2261 11.7576 13.2261 11.5432C13.2261 11.329 13.3015 11.1464 13.4523 10.9955C13.6032 10.8447 13.7858 10.7693 14 10.7693C14.2142 10.7693 14.3968 10.8447 14.5477 10.9955C14.6985 11.1464 14.7739 11.329 14.7739 11.5432C14.7739 11.7576 14.6985 11.9402 14.5477 12.091C14.3968 12.2419 14.2142 12.3174 14 12.3174ZM10.5 15.75C10.2858 15.75 10.1032 15.6745 9.95225 15.5236C9.80146 15.3728 9.72606 15.1903 9.72606 14.9761C9.72606 14.7617 9.80146 14.5791 9.95225 14.4283C10.1032 14.2774 10.2858 14.2019 10.5 14.2019C10.7142 14.2019 10.8968 14.2774 11.0478 14.4283C11.1985 14.5791 11.2739 14.7617 11.2739 14.9761C11.2739 15.1903 11.1985 15.3728 11.0478 15.5236C10.8968 15.6745 10.7142 15.75 10.5 15.75ZM7 15.75C6.78577 15.75 6.60319 15.6745 6.45225 15.5236C6.30146 15.3728 6.22606 15.1903 6.22606 14.9761C6.22606 14.7617 6.30146 14.5791 6.45225 14.4283C6.60319 14.2774 6.78577 14.2019 7 14.2019C7.21423 14.2019 7.39681 14.2774 7.54775 14.4283C7.69854 14.5791 7.77394 14.7617 7.77394 14.9761C7.77394 15.1903 7.69854 15.3728 7.54775 15.5236C7.39681 15.6745 7.21423 15.75 7 15.75ZM14 15.75C13.7858 15.75 13.6032 15.6745 13.4523 15.5236C13.3015 15.3728 13.2261 15.1903 13.2261 14.9761C13.2261 14.7617 13.3015 14.5791 13.4523 14.4283C13.6032 14.2774 13.7858 14.2019 14 14.2019C14.2142 14.2019 14.3968 14.2774 14.5477 14.4283C14.6985 14.5791 14.7739 14.7617 14.7739 14.9761C14.7739 15.1903 14.6985 15.3728 14.5477 15.5236C14.3968 15.6745 14.2142 15.75 14 15.75Z" fill="#354035"/>
</g>
</svg>
