<?xml version="1.0" encoding="UTF-8"?><svg id="_레이어_1" xmlns="http://www.w3.org/2000/svg" viewBox="0 0 70 178"><defs><style>.cls-1{fill:#fff;}</style></defs><path class="cls-1" d="M34.96,.6c.13,0,.33,.12,.59,.36,4.5,4.17,9.93,6.44,16.13,6.72,2.08,.1,2.93,.97,3.15,3.24,.01,.15,.03,.29,.04,.44,.03,.38,.06,.77,.13,1.17,.28,1.52,1.46,2.63,2.94,2.76,1.67,.15,2.94,1.26,4.15,2.33,.03,.04,.1,.19,.11,.36,.46,5.48,2.7,10.19,6.67,14,.42,.4,.52,.56,.54,.6,0,.04-.08,.17-.49,.56-3.19,2.96-5.19,6.87-6.29,12.3l-.03,.13c-.11,.56-.23,1.11-.36,1.66-.39,1.62-.81,2.02-2.39,2.26-.52,.08-1.05,.14-1.58,.2-2,.22-3.06,1.25-3.34,3.26-.05,.32-.07,.64-.09,.96-.02,.34-.04,.66-.09,.98-.29,1.83-1.08,2.55-2.9,2.65-3.66,.21-7.13,1.09-10.63,2.71-1.84,.85-2.99,2.27-3.63,4.48-1.31,4.53-.66,8.97,1.92,13.2,.95,1.56,2.02,3.08,3.04,4.55l.26,.38c.24,.35,.22,.48,0,.73-.16,.19-.33,.38-.49,.57-.51,.58-1.04,1.19-1.51,1.84-2.29,3.13-3.36,6.9-3.38,11.86-.03,7.48-.06,13.44-.09,19.15-.04,7.98-.08,15.48-.11,25.93v1.24c-.03,10.11-.06,20.56,0,30.85,0,.83-.2,1.46-.6,1.86-.44,.45-1.07,.54-1.52,.54-.25,0-.52-.03-.79-.09-.51-.11-1.05-.41-1.2-1.9-.03-.25-.05-.5-.07-.75-.08-.86-.16-1.75-.35-2.61-1.15-5.11-5.06-8.34-10.2-8.42-.81-.01-1.62-.02-2.44-.02-.74,0-1.49,0-2.27,.02-.27,0-.47-.04-.55-.13-.07-.08-.11-.25-.11-.5,.01-.73,.01-1.46,0-2.27v-.57c.26,0,.52,0,.77,0,.45,0,.9,.01,1.35,.01,.69,0,1.27-.01,1.8-.05,1.47-.09,2.64-.25,3.67-.53,4.47-1.2,7.22-4.57,7.96-9.76,.54-3.82,.5-7.68,.46-11.42-.02-1.66-.04-3.37,0-5.05,.02-.92,0-1.84-.03-2.73-.02-.62-.03-1.24-.04-1.86-.07-13.59-.1-18.08-.21-31.1-.04-4.09-1.4-8.09-4.16-12.23-.23-.34-.46-.68-.68-1.01l-.56-.83c-.4-.6-.36-1.05,.16-1.65,.95-1.09,2.02-2.33,2.93-3.68,2.65-3.93,3.53-7.79,2.71-11.81-.2-.98-.56-1.91-.91-2.78-.52-1.25-1.37-2.19-2.61-2.86-3.36-1.81-7.09-2.93-11.07-3.32-2.97-.29-3.41-.76-3.61-3.84-.17-2.58-1.43-3.37-3.57-3.88-2.3-.54-3.56-1.55-4.09-3.26-.15-.5-.32-1-.48-1.5-.23-.69-.46-1.4-.66-2.11-1.02-3.56-2.79-6.78-5.39-9.83-.36-.43-.33-.55-.02-.87,3.46-3.57,5.66-7.7,6.54-12.28,.58-3.01,1.88-4.33,4.49-4.56,1.91-.17,2.97-1.39,3.17-3.61,0-.08,.01-.15,.01-.23v-.09c.16-2.92,.79-3.59,3.58-3.79,6.12-.42,11.41-2.69,15.73-6.73,.25-.24,.46-.36,.59-.36m0,15.86h.08c2.24-.05,4.12-2.03,4.11-4.34-.01-2.31-1.92-4.27-4.18-4.29-1.09,0-2.13,.44-2.93,1.25-.82,.82-1.28,1.95-1.28,3.09,.01,2.32,1.94,4.29,4.19,4.29m0,1.63c-.7,0-1.39-.23-2.06-.69-2.08-1.42-4.4-2.17-6.73-2.17-3.71,0-7.29,1.9-9.84,5.23-5.22,6.8-5.24,17.47-.04,24.29,2.59,3.4,6.09,5.27,9.85,5.27,2.23,0,4.46-.69,6.46-2,.83-.54,1.6-.8,2.38-.8s1.54,.26,2.37,.79c2.03,1.32,4.28,2.01,6.5,2.01,2.87,0,5.6-1.12,7.89-3.23,3.73-3.43,5.64-8,5.84-14-.11-4.93-1.38-8.93-3.9-12.25-2.56-3.38-6.17-5.31-9.91-5.31-2.32,0-4.65,.75-6.72,2.16-.68,.47-1.38,.7-2.08,.7M34.96,0C34.65,0,34.34,.17,33.96,.52c-4.35,4.07-9.53,6.16-15.36,6.56-3.08,.21-3.97,1.15-4.14,4.35,0,.1,0,.2-.02,.29-.16,1.79-.92,2.92-2.63,3.07-3.11,.28-4.45,2.05-5.02,5.05-.89,4.65-3.13,8.62-6.38,11.97-.58,.6-.51,1.09,0,1.68,2.41,2.82,4.23,5.98,5.27,9.6,.35,1.22,.78,2.41,1.15,3.62,.7,2.28,2.57,3.2,4.53,3.66,2.08,.49,2.97,1.17,3.1,3.33,.22,3.41,.89,4.08,4.15,4.4,3.81,.37,7.43,1.41,10.84,3.25,1.11,.6,1.87,1.42,2.34,2.56,.36,.86,.69,1.76,.88,2.67,.86,4.2-.31,7.94-2.62,11.35-.86,1.28-1.88,2.46-2.88,3.62-.68,.78-.77,1.53-.2,2.37,.41,.62,.83,1.23,1.24,1.84,2.4,3.59,4.02,7.49,4.06,11.9,.12,13.27,.14,17.83,.21,31.09,0,1.53,.1,3.05,.07,4.58-.11,5.47,.33,10.94-.45,16.4-.69,4.83-3.24,8.12-7.52,9.27-1.15,.31-2.36,.44-3.55,.51-.59,.03-1.17,.04-1.76,.04-.9,0-1.8-.02-2.73-.02,0,1.31,.02,2.38,0,3.44-.02,.92,.44,1.23,1.25,1.23,.01,0,.03,0,.05,0,.74-.01,1.48-.02,2.22-.02,.81,0,1.62,0,2.43,.02,4.86,.08,8.53,3.08,9.63,7.95,.24,1.07,.3,2.19,.41,3.29,.14,1.42,.65,2.22,1.67,2.43,.31,.06,.61,.1,.91,.1,1.47,0,2.73-.84,2.71-3.01-.06-10.69-.02-21.39,0-32.08,.05-17.93,.13-27.15,.2-45.08,.02-4.16,.78-8.1,3.27-11.51,.61-.83,1.31-1.59,1.98-2.37,.42-.49,.42-.92,.04-1.47-1.13-1.61-2.26-3.22-3.29-4.9-2.41-3.95-3.16-8.18-1.85-12.72,.53-1.85,1.47-3.25,3.31-4.1,3.33-1.54,6.78-2.44,10.41-2.65,2.08-.12,3.11-1.03,3.46-3.15,.1-.64,.09-1.3,.18-1.94,.24-1.74,1.1-2.56,2.81-2.75,.53-.06,1.07-.13,1.6-.2,1.83-.27,2.44-.84,2.88-2.71,.14-.6,.26-1.21,.39-1.81,.93-4.59,2.64-8.76,6.11-11.98,.94-.87,.9-1.13-.04-2.03-3.84-3.69-6.03-8.21-6.49-13.62-.02-.26-.13-.59-.31-.75-1.32-1.16-2.65-2.32-4.5-2.48-1.23-.11-2.17-1.02-2.4-2.27-.1-.51-.11-1.03-.16-1.55-.25-2.56-1.32-3.67-3.72-3.78-6-.28-11.27-2.41-15.75-6.56C35.59,.17,35.27,0,34.96,0h0Zm0,15.86c-1.93,0-3.58-1.69-3.59-3.69-.01-2.02,1.65-3.73,3.6-3.73,0,0,.01,0,.02,0,1.9,.01,3.55,1.72,3.56,3.69,.01,1.99-1.59,3.69-3.52,3.73-.02,0-.04,0-.07,0h0Zm0,2.83c.82,0,1.63-.27,2.42-.81,2.04-1.39,4.23-2.06,6.39-2.06,3.51,0,6.92,1.77,9.43,5.08,2.61,3.45,3.68,7.43,3.78,11.9-.17,5.16-1.68,9.91-5.64,13.55-2.22,2.04-4.83,3.07-7.49,3.07-2.09,0-4.2-.64-6.18-1.92-.91-.59-1.8-.89-2.69-.89s-1.79,.3-2.71,.9c-1.96,1.28-4.06,1.9-6.13,1.9-3.47,0-6.86-1.74-9.37-5.03-5.06-6.63-5.04-16.94,.04-23.56,2.48-3.23,5.87-4.99,9.37-4.99,2.15,0,4.34,.67,6.39,2.07,.78,.53,1.59,.8,2.4,.8h0Z"/></svg>