<svg width="26" height="26" viewBox="0 0 26 26" fill="none" xmlns="http://www.w3.org/2000/svg">
<mask id="mask0_108_6846" style="mask-type:alpha" maskUnits="userSpaceOnUse" x="0" y="0" width="26" height="26">
<rect width="26" height="26" fill="#D9D9D9"/>
</mask>
<g mask="url(#mask0_108_6846)">
<path d="M12.9997 22.4792C12.7693 22.4792 12.5764 22.4013 12.4209 22.2455C12.2653 22.0898 12.1874 21.8969 12.1874 21.6667V13.8813C11.1014 13.8813 10.0604 13.6758 9.06446 13.2646C8.06869 12.8535 7.18885 12.266 6.42491 11.5021C5.66116 10.7381 5.07824 9.85828 4.67614 8.86252C4.27405 7.86675 4.073 6.82576 4.073 5.73954V5.07302C4.073 4.79857 4.1658 4.56846 4.35141 4.38267C4.53703 4.19705 4.76714 4.10425 5.04177 4.10425H5.70829C6.77086 4.10425 7.79967 4.31153 8.79471 4.72608C9.78993 5.14064 10.6694 5.72988 11.4332 6.49381C11.9999 7.06058 12.4649 7.6936 12.828 8.39289C13.1912 9.09219 13.4513 9.8349 13.6082 10.621C13.7332 10.4044 13.8724 10.1991 14.0259 10.0052C14.1793 9.81143 14.3506 9.62013 14.5396 9.43127C15.3012 8.6686 16.1812 8.07972 17.1797 7.66462C18.1782 7.24935 19.2189 7.04171 20.3019 7.04171H20.9687C21.2431 7.04171 21.4731 7.1346 21.6587 7.32039C21.8445 7.506 21.9374 7.73603 21.9374 8.01048V8.677C21.9374 9.76015 21.7298 10.801 21.3145 11.7994C20.8994 12.7979 20.3105 13.6779 19.5479 14.4395C18.7839 15.2034 17.9086 15.7865 16.9219 16.1886C15.935 16.5907 14.8985 16.7917 13.8124 16.7917V21.6667C13.8124 21.8969 13.7345 22.0898 13.5787 22.2455C13.4229 22.4013 13.2299 22.4792 12.9997 22.4792Z" fill="#E5E5EA"/>
</g>
</svg>
