<svg width="27" height="27" viewBox="0 0 27 27" fill="none" xmlns="http://www.w3.org/2000/svg">
<mask id="mask0_144_5386" style="mask-type:alpha" maskUnits="userSpaceOnUse" x="0" y="0" width="27" height="27">
<rect width="27" height="27" fill="#D9D9D9"/>
</mask>
<g mask="url(#mask0_144_5386)">
<path d="M7.875 19.6875C6.15619 19.6875 4.69528 19.0862 3.49228 17.8836C2.28909 16.6809 1.6875 15.2206 1.6875 13.5025C1.6875 11.7845 2.28909 10.3233 3.49228 9.11897C4.69528 7.91466 6.15619 7.3125 7.875 7.3125H19.125C20.8438 7.3125 22.3047 7.91381 23.5077 9.11644C24.7109 10.3191 25.3125 11.7794 25.3125 13.4975C25.3125 15.2155 24.7109 16.6767 23.5077 17.881C22.3047 19.0853 20.8438 19.6875 19.125 19.6875H7.875ZM19.1236 16.5938C19.9827 16.5938 20.7133 16.2931 21.3154 15.6918C21.9176 15.0905 22.2188 14.3603 22.2188 13.5014C22.2188 12.6423 21.9181 11.9117 21.3168 11.3096C20.7155 10.7074 19.9853 10.4062 19.1264 10.4062C18.2673 10.4062 17.5367 10.7069 16.9346 11.3082C16.3324 11.9095 16.0312 12.6397 16.0312 13.4986C16.0312 14.3577 16.3319 15.0883 16.9332 15.6904C17.5345 16.2926 18.2647 16.5938 19.1236 16.5938Z" fill="#354035"/>
</g>
</svg>
