<svg width="26" height="26" viewBox="0 0 26 26" fill="none" xmlns="http://www.w3.org/2000/svg">
<path d="M17.9187 23.981C17.4818 24.0004 17.1125 23.7984 16.7826 23.4995C16.0299 22.8158 15.2773 22.1294 14.5217 21.4486C13.9664 20.9476 13.0558 20.9504 12.4835 21.4569C11.8549 22.0132 11.2432 22.5889 10.6117 23.1424C10.3044 23.4109 9.99712 23.7015 9.63628 23.8759C8.84976 24.255 7.77851 23.7209 7.59809 22.8795C7.53889 22.5972 7.55298 22.2927 7.56708 22.0021C7.61218 21.1386 7.6883 20.2751 7.72777 19.4115C7.73904 19.1292 7.72213 18.8248 7.62628 18.5619C7.42331 18.0028 6.96098 17.7205 6.37743 17.6291C5.35692 17.4714 4.3336 17.3275 3.31592 17.1697C2.65625 17.0673 2.23057 16.6798 2.06142 16.0543C1.88946 15.4094 2.07834 14.8531 2.63088 14.4601C3.27645 14.0007 3.94457 13.5689 4.60141 13.1261C4.87205 12.9434 5.15113 12.7663 5.41049 12.567C5.97148 12.1325 6.13499 11.3188 5.77697 10.6933C5.26108 9.79098 4.73109 8.89978 4.20675 8.00304C3.88819 7.4578 3.8741 6.90426 4.22648 6.37839C4.56195 5.87467 5.05811 5.61727 5.66985 5.69477C6.02787 5.73905 6.37743 5.86637 6.72418 5.96877C7.48815 6.19573 8.24366 6.44759 9.01045 6.6607C9.83926 6.89319 10.623 6.46419 10.9387 5.6754C11.3277 4.7067 11.7252 3.74353 12.1509 2.79144C12.3877 2.26004 12.8528 2.03032 13.4364 2.00264C14.0058 1.97497 14.4795 2.16317 14.7755 2.63645C14.9784 2.96027 15.1081 3.33114 15.2575 3.68818C15.5592 4.40502 15.8326 5.13569 16.1568 5.84423C16.4894 6.5749 17.307 6.88489 18.0822 6.64133C19.0915 6.32581 20.1035 6.01582 21.1184 5.72245C21.9415 5.48442 22.8296 6.07395 22.9987 6.90149C23.1171 7.47164 22.8549 7.90894 22.5899 8.36008C22.1417 9.1295 21.6878 9.89339 21.248 10.6656C20.8336 11.3935 21.062 12.2293 21.7668 12.6943C22.6238 13.2589 23.4751 13.8346 24.3208 14.4158C24.8226 14.7618 25.0623 15.2406 24.9861 15.8495C24.9072 16.4722 24.5605 16.9012 23.96 17.1033C23.6894 17.1946 23.3962 17.2195 23.1086 17.261C22.2798 17.3856 21.4482 17.5101 20.6166 17.6264C19.7737 17.7454 19.207 18.4262 19.2606 19.2621C19.3142 20.1062 19.3621 20.9504 19.4156 21.7918C19.4269 21.9606 19.4636 22.1267 19.4805 22.2955C19.5651 23.1867 18.8462 24.0004 17.9103 23.981H17.9187Z" fill="#E5E5EA"/>
</svg>
