<svg width="44" height="44" viewBox="0 0 44 44" fill="none" xmlns="http://www.w3.org/2000/svg">
<g clip-path="url(#clip0_424_10083)">
<path d="M42.8343 19.9174L42.8275 19.9106L42.8074 19.8905L42.7944 19.8776C41.7479 18.9418 41.4735 17.4249 42.0941 16.1656L42.0943 16.1651C44.6133 11.0759 43.44 6.29059 40.442 3.40938C37.4415 0.525897 32.5708 -0.49149 27.599 2.06282C26.3504 2.70966 24.8295 2.39595 23.8925 1.35978L23.8905 1.35755C23.8622 1.3257 23.8335 1.2951 23.8008 1.26043L23.7994 1.25896C23.7683 1.22584 23.7334 1.18882 23.6981 1.14913M42.8343 19.9174L2.0489 16.3368C-0.308459 12.0354 0.253161 6.79793 3.92495 3.38214L3.92496 3.38216L3.92817 3.3791C5.6301 1.75516 7.50655 0.859384 9.56103 0.641386C11.6209 0.422814 13.8891 0.882656 16.3728 2.02173L16.3735 2.02205C17.6011 2.58171 19.0582 2.30348 19.9745 1.30548L19.9746 1.30555L19.9801 1.29924C19.9865 1.29193 19.9927 1.28489 19.9986 1.27807C20.0483 1.22122 20.0839 1.18053 20.1249 1.13947L20.1301 1.13428L20.1351 1.12888C21.0966 0.0830808 22.7519 0.0910002 23.6981 1.14913M42.8343 19.9174L42.8415 19.9239C43.9147 20.885 43.922 22.5652 42.8482 23.5267C42.8395 23.5338 42.831 23.5409 42.823 23.5479H42.8129L42.7133 23.6368C41.6147 24.6174 41.3745 26.2201 42.0861 27.4992L42.392 27.3291L42.0861 27.4992C44.4714 31.7868 43.8287 37.0099 40.1994 40.4295L40.1994 40.4295L40.1957 40.433C37.5903 42.961 32.8643 44.5394 27.8223 41.9714L27.8218 41.9711C26.5445 41.3235 24.987 41.5895 24.0413 42.6717L24.0408 42.6722C23.2626 43.5659 22.5659 43.7304 21.9976 43.6192C21.3935 43.5011 20.8358 43.0538 20.4037 42.5337L20.4036 42.5336C19.4559 41.3944 17.8234 41.1276 16.5414 41.8408L16.7116 42.1467L16.5414 41.8409C7.36051 46.9494 -2.97845 37.6633 1.98323 27.6454C2.62393 26.3548 2.24467 24.9044 1.27785 23.911C0.472893 23.0831 0.289781 22.453 0.365883 21.9281C0.446696 21.3708 0.829327 20.8291 1.39824 20.2041L1.3983 20.204C2.35938 19.1476 2.77567 17.6618 2.04897 16.3369L42.8343 19.9174ZM23.6981 1.14913C23.698 1.14896 23.6978 1.14879 23.6977 1.14862L23.9593 0.916097L23.6984 1.14937C23.6983 1.14929 23.6982 1.14921 23.6981 1.14913ZM22.6576 26.755C23.2205 26.755 23.6745 26.3009 23.6745 25.738V18.2649C23.6745 17.702 23.2205 17.248 22.6576 17.248H21.3479C20.7849 17.248 20.3309 17.702 20.3309 18.2649V25.738C20.3309 26.3009 20.7849 26.755 21.3479 26.755H22.6576Z" stroke="white" stroke-width="0.7"/>
</g>
<defs>
<clipPath id="clip0_424_10083">
<rect width="44" height="44" fill="white"/>
</clipPath>
</defs>
</svg>
