<?xml version="1.0" encoding="UTF-8"?><svg id="Future_Goal" xmlns="http://www.w3.org/2000/svg" viewBox="0 0 44 44"><defs><style>.cls-1{fill:#fff;}</style></defs><path class="cls-1" d="M21.91,.7h0c.58,0,1.14,.25,1.53,.68l.19,.21c.66,.73,1.6,1.15,2.58,1.15,.54,0,1.07-.13,1.55-.37,1.83-.94,3.71-1.42,5.57-1.42,3.47,0,6.59,1.7,8.35,4.54,1.88,3.02,1.91,6.86,.1,10.52-.7,1.41-.37,3.11,.79,4.14l.04,.04c.44,.39,.7,.95,.7,1.54,0,.59-.25,1.15-.69,1.54l-.12,.11c-1.22,1.08-1.51,2.85-.7,4.3,2.36,4.24,1.63,9.26-1.82,12.51-1.8,1.75-4.32,2.75-6.9,2.75-1.71,0-3.41-.43-5.07-1.27-.5-.25-1.05-.39-1.61-.39-1,0-1.94,.43-2.59,1.17-.5,.57-.99,.86-1.47,.86-.71,0-1.33-.62-1.64-.99-.64-.77-1.6-1.21-2.62-1.21-.59,0-1.17,.15-1.69,.44-1.68,.93-3.43,1.41-5.23,1.41-3.47,0-6.77-1.85-8.61-4.82-1.89-3.05-1.98-6.81-.24-10.32,.67-1.35,.36-2.97-.77-4.13-1.25-1.29-.99-2.01,.13-3.23,1.17-1.29,1.44-2.92,.7-4.27C0,11.87,.72,6.83,4.17,3.63c1.9-1.81,3.99-2.7,6.41-2.7,1.72,0,3.63,.47,5.65,1.4,.46,.21,.95,.32,1.46,.32,.97,0,1.89-.41,2.54-1.11l.16-.17c.39-.43,.93-.67,1.52-.67m-.56,26.4h1.31c.75,0,1.37-.61,1.37-1.37v-7.47c0-.75-.61-1.37-1.37-1.37h-1.31c-.75,0-1.37,.61-1.37,1.37v7.47c0,.75,.61,1.37,1.37,1.37M21.91,0c-.74,0-1.48,.3-2.03,.89-.05,.06-.11,.12-.16,.17-.53,.58-1.27,.89-2.03,.89-.39,0-.79-.08-1.17-.26C14.4,.73,12.42,.23,10.58,.23c-2.56,0-4.86,.95-6.89,2.89C-.12,6.66-.69,12.07,1.74,16.5c.64,1.16,.29,2.49-.6,3.46-1.14,1.26-1.81,2.44-.11,4.19,.88,.91,1.2,2.2,.64,3.33-4.12,8.31,2,16.15,9.48,16.15,1.82,0,3.72-.46,5.57-1.49,.42-.24,.89-.35,1.35-.35,.78,0,1.55,.33,2.08,.96,.53,.64,1.3,1.24,2.18,1.24,.62,0,1.3-.3,1.99-1.1,.53-.61,1.29-.93,2.07-.93,.44,0,.88,.1,1.29,.31,1.87,.95,3.69,1.35,5.39,1.35,3.03,0,5.66-1.27,7.39-2.95,3.75-3.53,4.41-8.93,1.95-13.36-.64-1.14-.42-2.56,.56-3.43,.04-.04,.08-.07,.12-.11,1.24-1.1,1.23-3.03,0-4.13-.01-.01-.03-.02-.04-.04-.93-.83-1.18-2.18-.63-3.3C46.55,7.94,40.96,.25,33.32,.25c-1.88,0-3.88,.46-5.89,1.5-.39,.2-.81,.3-1.23,.3-.77,0-1.52-.32-2.06-.92-.06-.07-.13-.14-.19-.21C23.41,.31,22.66,0,21.91,0h0Zm-.56,26.4c-.37,0-.67-.3-.67-.67v-7.47c0-.37,.3-.67,.67-.67h1.31c.37,0,.67,.3,.67,.67v7.47c0,.37-.3,.67-.67,.67h-1.31Z"/></svg>