<svg width="23" height="23" viewBox="0 0 23 23" fill="none" xmlns="http://www.w3.org/2000/svg">
<mask id="mask0_108_1430" style="mask-type:alpha" maskUnits="userSpaceOnUse" x="0" y="0" width="23" height="23">
<rect x="23" y="23" width="23" height="23" transform="rotate(-180 23 23)" fill="#D9D9D9"/>
</mask>
<g mask="url(#mask0_108_1430)">
<path d="M10.5931 11.5L14.4966 15.4033C14.6292 15.536 14.6971 15.7029 14.7003 15.9038C14.7033 16.1046 14.6354 16.2744 14.4966 16.4134C14.3577 16.5522 14.1893 16.6216 13.9916 16.6216C13.7939 16.6216 13.6255 16.5522 13.4866 16.4134L9.17956 12.1064C9.08996 12.0166 9.02671 11.922 8.98981 11.8225C8.95292 11.723 8.93447 11.6155 8.93447 11.5C8.93447 11.3845 8.95292 11.277 8.98981 11.1775C9.02671 11.078 9.08996 10.9834 9.17956 10.8936L13.4866 6.58663C13.6193 6.45406 13.7861 6.38618 13.987 6.38299C14.1878 6.37995 14.3577 6.44783 14.4966 6.58663C14.6354 6.72559 14.7048 6.89394 14.7048 7.09167C14.7048 7.28941 14.6354 7.45776 14.4966 7.59672L10.5931 11.5Z" fill="#848487"/>
</g>
</svg>
