<svg width="26" height="26" viewBox="0 0 26 26" fill="none" xmlns="http://www.w3.org/2000/svg">
<mask id="mask0_108_6851" style="mask-type:alpha" maskUnits="userSpaceOnUse" x="0" y="0" width="26" height="26">
<rect width="26" height="26" fill="#D9D9D9"/>
</mask>
<g mask="url(#mask0_108_6851)">
<path d="M17.1645 12.8353L13.1855 8.85623C13.084 8.75494 13.0124 8.64751 12.9707 8.53394C12.9292 8.42055 12.9084 8.29904 12.9084 8.1694C12.9084 8.03976 12.9292 7.9187 12.9707 7.80621C13.0124 7.69372 13.084 7.58684 13.1855 7.48554L17.1645 3.50619C17.2658 3.4049 17.3733 3.3334 17.4868 3.29169C17.6002 3.24998 17.7217 3.22913 17.8514 3.22913C17.981 3.22913 18.1021 3.24998 18.2146 3.29169C18.327 3.3334 18.4339 3.4049 18.5352 3.50619L22.5146 7.48554C22.6159 7.58684 22.6874 7.69418 22.7291 7.80756C22.7708 7.92095 22.7916 8.04247 22.7916 8.17211C22.7916 8.30174 22.7708 8.42281 22.7291 8.53529C22.6874 8.64796 22.6159 8.75494 22.5146 8.85623L18.5352 12.8353C18.4339 12.9368 18.3266 13.0083 18.2132 13.0498C18.0996 13.0915 17.9781 13.1124 17.8487 13.1124C17.719 13.1124 17.5979 13.0915 17.4852 13.0498C17.3727 13.0083 17.2658 12.9368 17.1645 12.8353ZM4.125 10.729V5.10411C4.125 4.82677 4.2188 4.59422 4.4064 4.40644C4.59417 4.21884 4.82673 4.12504 5.10406 4.12504H10.729C11.0065 4.12504 11.2391 4.21884 11.4267 4.40644C11.6144 4.59422 11.7083 4.82677 11.7083 5.10411V10.729C11.7083 11.0066 11.6144 11.2391 11.4267 11.4267C11.2391 11.6145 11.0065 11.7084 10.729 11.7084H5.10406C4.82673 11.7084 4.59417 11.6145 4.4064 11.4267C4.2188 11.2391 4.125 11.0066 4.125 10.729ZM14.2915 20.8959V15.2709C14.2915 14.9934 14.3854 14.7608 14.5732 14.5733C14.7608 14.3855 14.9934 14.2916 15.2709 14.2916H20.8958C21.1731 14.2916 21.4057 14.3855 21.5935 14.5733C21.7811 14.7608 21.8749 14.9934 21.8749 15.2709V20.8959C21.8749 21.1732 21.7811 21.4057 21.5935 21.5935C21.4057 21.7811 21.1731 21.8749 20.8958 21.8749H15.2709C14.9934 21.8749 14.7608 21.7811 14.5732 21.5935C14.3854 21.4057 14.2915 21.1732 14.2915 20.8959ZM4.125 20.8959V15.2709C4.125 14.9934 4.2188 14.7608 4.4064 14.5733C4.59417 14.3855 4.82673 14.2916 5.10406 14.2916H10.729C11.0065 14.2916 11.2391 14.3855 11.4267 14.5733C11.6144 14.7608 11.7083 14.9934 11.7083 15.2709V20.8959C11.7083 21.1732 11.6144 21.4057 11.4267 21.5935C11.2391 21.7811 11.0065 21.8749 10.729 21.8749H5.10406C4.82673 21.8749 4.59417 21.7811 4.4064 21.5935C4.2188 21.4057 4.125 21.1732 4.125 20.8959Z" fill="#E5E5EA"/>
</g>
</svg>
