<svg width="26" height="26" viewBox="0 0 26 26" fill="none" xmlns="http://www.w3.org/2000/svg">
<g clip-path="url(#clip0_424_10089)">
<path d="M12.9914 25.9945C12.6901 25.9326 12.3695 25.9163 12.0912 25.7998C11.5883 25.5886 11.1698 25.2409 10.951 24.7276C10.8186 24.4164 10.7744 24.0687 10.6823 23.741C10.6113 23.488 10.5287 23.2386 10.4539 22.9874C10.404 22.8182 10.3713 22.6434 10.3157 22.4759C10.2638 22.3212 10.1909 22.1738 10.1276 22.0227C10.0681 21.8825 10.0143 21.7405 9.94905 21.604C9.83964 21.3765 9.72639 21.1526 9.61122 20.9269C9.521 20.7503 9.43463 20.5719 9.3329 20.4045C9.20813 20.2006 9.06993 20.0058 8.93557 19.8092C8.78009 19.5817 8.63421 19.3469 8.46146 19.1339C8.30598 18.9428 8.12363 18.7735 7.94704 18.5987C7.68023 18.3348 7.41534 18.0654 7.13702 17.8142C6.9182 17.6158 6.68403 17.432 6.44793 17.2536C6.18496 17.0552 5.92008 16.8549 5.63983 16.6802C5.39414 16.5255 5.12734 16.4035 4.86629 16.2724C4.64171 16.1578 4.41905 16.0394 4.1868 15.9393C3.94494 15.8356 3.69349 15.7537 3.44396 15.6626C3.23666 15.588 3.03127 15.5116 2.82205 15.4442C2.66657 15.3932 2.5111 15.3441 2.35178 15.3113C2.09457 15.2585 1.82969 15.2385 1.58015 15.1675C1.38437 15.1111 1.18666 15.0219 1.01967 14.9072C0.821963 14.7707 0.628097 14.6087 0.486056 14.4176C0.336337 14.2192 0.246122 13.9771 0.134793 13.7513C-0.0437179 13.3928 -0.00532851 13.0069 0.0292219 12.6337C0.0637724 12.2569 0.194296 11.8965 0.459183 11.6089C0.637694 11.4159 0.810446 11.2121 1.01775 11.0555C1.17707 10.9336 1.38053 10.8571 1.5744 10.797C1.81625 10.7242 2.07154 10.6987 2.31723 10.6387C2.54565 10.5822 2.76831 10.5058 2.99288 10.4384C3.1714 10.3857 3.35183 10.3438 3.52458 10.2783C3.79906 10.1745 4.06779 10.0562 4.33651 9.94151C4.54958 9.85049 4.76456 9.76312 4.96802 9.65754C5.20411 9.53558 5.43253 9.39906 5.65903 9.26072C5.81067 9.16789 5.95847 9.06959 6.10051 8.96402C6.44601 8.70736 6.79727 8.4598 7.12358 8.17948C7.43454 7.91372 7.72822 7.62429 8.00462 7.32212C8.26951 7.0327 8.5056 6.71779 8.74362 6.4047C8.94132 6.1444 9.14095 5.88046 9.30794 5.60014C9.50373 5.27067 9.67072 4.923 9.83963 4.57897C9.99895 4.25678 10.1583 3.93277 10.2965 3.60148C10.3656 3.43583 10.3886 3.24834 10.4404 3.0736C10.5057 2.85334 10.5786 2.63491 10.6458 2.41466C10.6631 2.35459 10.6688 2.2927 10.6804 2.23081C10.7264 1.99599 10.7399 1.74661 10.8262 1.52818C10.9664 1.17504 11.1602 0.843755 11.4597 0.588916C11.7514 0.341358 12.0681 0.177532 12.4482 0.0883383C12.69 0.0300898 12.9261 -0.0226961 13.1622 0.0100683C13.7131 0.0883402 14.2467 0.223039 14.621 0.689029C14.7727 0.878339 14.9397 1.05673 15.074 1.25878C15.1451 1.36617 15.17 1.50816 15.2007 1.6374C15.2545 1.86675 15.289 2.09975 15.3466 2.32728C15.4119 2.5803 15.4944 2.82786 15.5673 3.07906C15.575 3.10272 15.5789 3.12821 15.5827 3.15187C15.6307 3.4777 15.7958 3.75984 15.9224 4.05655C15.9839 4.20217 16.0223 4.35689 16.0856 4.50069C16.1624 4.6718 16.2487 4.84108 16.3428 5.00309C16.4964 5.26885 16.6538 5.53461 16.8207 5.79309C17.2354 6.44293 17.7056 7.04908 18.2584 7.58971C18.4485 7.77537 18.6174 7.98653 18.8208 8.15581C19.1414 8.42339 19.4735 8.68187 19.8209 8.91305C20.2624 9.20793 20.7192 9.48644 21.1818 9.74856C21.4083 9.87598 21.6636 9.94879 21.9054 10.0507C22.1511 10.1545 22.3891 10.2746 22.6387 10.3638C22.846 10.4384 23.0667 10.473 23.2817 10.5313C23.5159 10.5932 23.7481 10.6605 23.9823 10.726C24.1781 10.7807 24.3719 10.8425 24.5697 10.8844C24.9228 10.9572 25.1685 11.1866 25.4027 11.436C25.6618 11.7126 25.8077 12.0421 25.9229 12.4098C26.0265 12.7356 25.9997 13.0451 25.9881 13.36C25.9824 13.5347 25.848 13.7022 25.8077 13.8824C25.7482 14.1518 25.5774 14.3466 25.4065 14.5395C25.1973 14.7762 24.9555 14.9637 24.6464 15.0747C24.3163 15.1948 23.9861 15.2713 23.6406 15.3277C23.2894 15.3841 22.9535 15.5316 22.6137 15.6499C22.2548 15.7773 21.8882 15.892 21.5465 16.0576C21.1338 16.2597 20.7384 16.5 20.3468 16.7384C20.0243 16.935 19.7096 17.1462 19.4024 17.3664C19.1798 17.5266 18.9706 17.705 18.7671 17.8888C18.5252 18.1073 18.2815 18.3275 18.0626 18.5696C17.792 18.8663 17.5367 19.1794 17.2929 19.498C17.0511 19.8147 16.815 20.1405 16.6039 20.4809C16.4407 20.7467 16.3198 21.0379 16.1816 21.3201C16.0798 21.5276 15.9762 21.7351 15.8821 21.9462C15.813 22.1028 15.7574 22.2666 15.6998 22.4286C15.6268 22.627 15.5539 22.8236 15.4886 23.0238C15.4387 23.1804 15.3946 23.3406 15.3581 23.5026C15.3024 23.7629 15.2737 24.0286 15.2026 24.2835C15.0664 24.764 14.813 25.1681 14.4099 25.4867C13.9895 25.8198 13.5212 25.9727 12.9818 26L12.9914 25.9945Z" fill="#E5E5EA"/>
</g>
<defs>
<clipPath id="clip0_424_10089">
<rect width="26" height="26" fill="white"/>
</clipPath>
</defs>
</svg>
