<svg width="44" height="44" viewBox="0 0 44 44" fill="none" xmlns="http://www.w3.org/2000/svg">
<g clip-path="url(#clip0_424_10086)">
<path d="M0.35 22C0.35 10.0443 10.0443 0.35 22 0.35C33.9557 0.35 43.65 10.0443 43.65 22C43.65 33.9557 33.9557 43.65 22 43.65C10.0443 43.65 0.35 33.9557 0.35 22ZM22.6508 26.7532C23.2138 26.7532 23.6678 26.2992 23.6678 25.7363V18.2637C23.6678 17.7008 23.2138 17.2468 22.6508 17.2468H21.3411C20.7782 17.2468 20.3242 17.7008 20.3242 18.2637V25.7363C20.3242 26.2992 20.7782 26.7532 21.3411 26.7532H22.6508Z" stroke="white" stroke-width="0.7"/>
</g>
<defs>
<clipPath id="clip0_424_10086">
<rect width="44" height="44" fill="white"/>
</clipPath>
</defs>
</svg>
