<?xml version="1.0" encoding="UTF-8"?><svg id="Detailed_Task" xmlns="http://www.w3.org/2000/svg" viewBox="0 0 44 44"><defs><style>.cls-1{fill:#fff;}</style></defs><path class="cls-1" d="M22,.7c11.74,0,21.3,9.56,21.3,21.3s-9.56,21.3-21.3,21.3S.7,33.74,.7,22,10.26,.7,22,.7m-.65,26.4h1.31c.75,0,1.37-.61,1.37-1.37v-7.47c0-.75-.61-1.37-1.37-1.37h-1.31c-.75,0-1.37,.61-1.37,1.37v7.47c0,.75,.61,1.37,1.37,1.37M22,0C9.85,0,0,9.85,0,22s9.85,22,22,22,22-9.85,22-22S34.15,0,22,0h0Zm-.65,26.4c-.37,0-.67-.3-.67-.67v-7.47c0-.37,.3-.67,.67-.67h1.31c.37,0,.67,.3,.67,.67v7.47c0,.37-.3,.67-.67,.67h-1.31Z"/></svg>