<svg width="44" height="44" viewBox="0 0 44 44" fill="none" xmlns="http://www.w3.org/2000/svg">
<g clip-path="url(#clip0_424_10082)">
<path d="M37.0988 19.9318C35.8372 20.7241 35.7707 22.4857 36.8268 23.4137L36.7863 23.4541L37.1839 23.6817C40.4184 25.5329 42.121 27.7685 42.9543 30.6579C43.796 33.5759 43.7582 37.181 43.4446 41.7882C43.3922 42.5302 42.8068 43.1158 42.071 43.1746C37.4759 43.52 33.919 43.5397 31.0456 42.7121C28.1983 41.892 26.0014 40.2328 24.1424 37.1551C23.2867 35.7383 21.2276 35.7166 20.3903 37.1604C18.3779 40.6302 16.091 42.2983 13.2401 43.064C10.3534 43.8393 6.87037 43.6971 2.43148 43.4713C1.68382 43.4323 1.07246 42.833 1.02703 42.0801L1.02697 42.0791C0.732999 37.4275 0.621385 33.9568 1.38319 31.1332C2.13592 28.3432 3.74973 26.1629 6.98645 24.1244C8.38123 23.249 8.31314 21.2207 6.91438 20.3928L6.9142 20.3927C3.40778 18.3202 1.73226 15.9884 0.958307 13.1234C0.174842 10.2233 0.307506 6.75983 0.488997 2.38751C0.521753 1.65215 1.08825 1.04683 1.82347 0.968744L1.82354 0.968738C6.34596 0.487588 9.94286 0.474509 12.8632 1.32732C15.7623 2.17395 18.0172 3.88098 19.8473 6.90121L19.8477 6.90193C20.7265 8.3444 22.8325 8.29893 23.6367 6.8054L23.6368 6.80528C25.5201 3.30402 28.1929 1.65191 31.2839 0.906716C34.3825 0.159692 37.8935 0.324867 41.4725 0.49324L41.5356 0.496212L41.5368 0.496266C42.2815 0.528644 42.888 1.11901 42.9467 1.86944L42.9467 1.86949C43.277 6.08227 43.4684 9.54914 42.7497 12.4949C42.0384 15.4107 40.4296 17.8317 37.0988 19.9318ZM22.6616 26.7494C23.2246 26.7494 23.6785 26.2953 23.6785 25.7324V18.2592C23.6785 17.6962 23.2246 17.2422 22.6616 17.2422H21.3519C20.789 17.2422 20.335 17.6962 20.335 18.2592V25.7324C20.335 26.2953 20.789 26.7494 21.3519 26.7494H22.6616Z" stroke="white" stroke-width="0.7"/>
</g>
<defs>
<clipPath id="clip0_424_10082">
<rect width="44" height="44" fill="white"/>
</clipPath>
</defs>
</svg>
