<?xml version="1.0" encoding="UTF-8"?><svg id="Information" xmlns="http://www.w3.org/2000/svg" viewBox="0 0 44 44"><defs><style>.cls-1{fill:#fff;}</style></defs><path class="cls-1" d="M36.95,.7c1.47,0,3.01,.07,4.49,.14h.08c.57,.03,1.03,.48,1.08,1.05,.65,8.36,.73,13.69-5.69,17.74-.75,.47-1.19,1.29-1.17,2.19,.02,.9,.5,1.71,1.28,2.16,6.05,3.47,6.75,8.08,6.09,17.78-.04,.56-.49,1.02-1.05,1.06-2.04,.15-3.64,.23-5.04,.23-6.48,0-9.89-1.65-12.56-6.07-.47-.77-1.28-1.24-2.19-1.24s-1.72,.47-2.17,1.25c-3.07,5.31-6.74,6.31-12.43,6.31-1.56,0-3.28-.08-5.2-.18-.58-.03-1.04-.49-1.08-1.07-.57-9.08-.57-13.63,5.8-17.64,.75-.47,1.19-1.28,1.17-2.17-.01-.9-.48-1.71-1.26-2.16C.28,16.06,.49,10.92,.84,2.4c.02-.56,.46-1.03,1.02-1.09,2.07-.22,3.81-.33,5.34-.33,6.15,0,9.73,1.77,12.35,6.09,.46,.77,1.28,1.23,2.17,1.23s1.79-.51,2.23-1.33C26.91,1.46,31.94,.7,36.95,.7m-15.6,26.4h1.31c.75,0,1.37-.61,1.37-1.37v-7.47c0-.75-.61-1.37-1.37-1.37h-1.31c-.75,0-1.37,.61-1.37,1.37v7.47c0,.75,.61,1.37,1.37,1.37M36.95,0c-5.51,0-10.58,.99-13.62,6.64-.35,.64-.98,.96-1.61,.96s-1.21-.29-1.57-.89C17.21,1.87,13.17,.28,7.2,.28c-1.65,0-3.45,.12-5.41,.33C.88,.71,.18,1.46,.14,2.37-.22,11.08-.42,16.47,6.73,20.69c1.18,.7,1.23,2.41,.07,3.14C.2,27.98,.09,32.82,.68,42.1c.06,.93,.81,1.67,1.74,1.72,1.9,.1,3.64,.18,5.24,.18,5.84,0,9.82-1.1,13.04-6.66,.35-.6,.95-.9,1.56-.9s1.23,.3,1.59,.9c3.04,5.03,7.01,6.41,13.16,6.41,1.55,0,3.24-.09,5.09-.23,.91-.07,1.63-.8,1.7-1.71,.63-9.21,.18-14.65-6.44-18.44-1.2-.69-1.25-2.41-.08-3.14,6.81-4.29,6.67-9.98,6.01-18.39-.07-.92-.82-1.65-1.74-1.7-1.54-.07-3.09-.15-4.6-.15h0Zm-15.6,26.4c-.37,0-.67-.3-.67-.67v-7.47c0-.37,.3-.67,.67-.67h1.31c.37,0,.67,.3,.67,.67v7.47c0,.37-.3,.67-.67,.67h-1.31Z"/></svg>