<svg width="23" height="23" viewBox="0 0 23 23" fill="none" xmlns="http://www.w3.org/2000/svg">
<mask id="mask0_108_1431" style="mask-type:alpha" maskUnits="userSpaceOnUse" x="0" y="0" width="23" height="23">
<rect width="23" height="23" fill="#D9D9D9"/>
</mask>
<g mask="url(#mask0_108_1431)">
<path d="M12.4069 11.5L8.50336 7.5967C8.37079 7.46397 8.30291 7.29714 8.29972 7.09621C8.29668 6.89544 8.36457 6.72557 8.50336 6.58662C8.64232 6.44782 8.81067 6.37842 9.00841 6.37842C9.20614 6.37842 9.37449 6.44782 9.51345 6.58662L13.8204 10.8936C13.91 10.9834 13.9733 11.078 14.0102 11.1775C14.0471 11.277 14.0655 11.3845 14.0655 11.5C14.0655 11.6155 14.0471 11.723 14.0102 11.8225C13.9733 11.922 13.91 12.0166 13.8204 12.1064L9.51345 16.4134C9.38072 16.5459 9.21389 16.6138 9.01296 16.617C8.81219 16.62 8.64232 16.5522 8.50336 16.4134C8.36457 16.2744 8.29517 16.1061 8.29517 15.9083C8.29517 15.7106 8.36457 15.5422 8.50336 15.4033L12.4069 11.5Z" fill="#848487"/>
</g>
</svg>
