<svg width="24" height="24" viewBox="0 0 24 24" fill="none" xmlns="http://www.w3.org/2000/svg">
<mask id="mask0_144_5384" style="mask-type:alpha" maskUnits="userSpaceOnUse" x="0" y="0" width="24" height="24">
<rect width="24" height="24" fill="#D9D9D9"/>
</mask>
<g mask="url(#mask0_144_5384)">
<path d="M12 21.123C11.8795 21.123 11.7673 21.1037 11.6635 21.0652C11.5597 21.0269 11.4609 20.9609 11.3672 20.8672L5.85374 15.3537C5.71541 15.2154 5.64624 15.0414 5.64624 14.8317C5.64624 14.6221 5.71541 14.448 5.85374 14.3095C6.00257 14.1608 6.17757 14.0875 6.37874 14.0895C6.58007 14.0913 6.74999 14.1615 6.88849 14.3L11.25 18.6462V3.24048C11.25 3.02765 11.3218 2.84939 11.4655 2.70573C11.609 2.56223 11.7872 2.49048 12 2.49048C12.2128 2.49048 12.391 2.56223 12.5345 2.70573C12.6782 2.84939 12.75 3.02765 12.75 3.24048V18.6365L17.0865 14.3C17.2353 14.1513 17.4136 14.0753 17.6212 14.072C17.8289 14.0688 18.0071 14.1448 18.1557 14.3C18.2942 14.4486 18.3635 14.6252 18.3635 14.8297C18.3635 15.0342 18.2942 15.2057 18.1557 15.3442L12.6327 20.8672C12.5391 20.9609 12.4403 21.0269 12.3365 21.0652C12.2327 21.1037 12.1205 21.123 12 21.123Z" fill="#8E8E93"/>
</g>
</svg>
