<?xml version="1.0" encoding="UTF-8"?><svg id="Quick_Task" xmlns="http://www.w3.org/2000/svg" viewBox="0 0 44 44"><defs><style>.cls-1{fill:#fff;}</style></defs><path class="cls-1" d="M21.97,.67c2.71,.33,3.1,3.58,3.31,7.8,.06,1.12,.11,2.18,.26,3.03l.19,1.08,.9-.62c.72-.5,1.51-1.13,2.34-1.8,2.22-1.78,4.74-3.79,6.6-3.79,.53,0,.98,.18,1.36,.54,1.56,1.48-1.11,5.04-3.06,7.63-.76,1.01-1.48,1.96-1.92,2.74l-.58,1.02,1.17,.02c7.86,.17,10.77,2.3,10.76,3.61-.01,1.38-3.16,3.32-10.12,3.32-.32,0-.64,0-.97-.01l-1.35-.03,.75,1.12c.64,.96,1.46,1.9,2.25,2.82,2.13,2.47,4.15,4.8,3.22,7.44-.05,.15-.17,.28-.32,.34-.45,.19-.9,.28-1.37,.28-1.84,0-3.71-1.46-5.52-2.88-1.1-.86-2.23-1.75-3.37-2.31l-.99-.49-.02,1.1c-.16,7.79-2.21,10.69-3.47,10.69-.34,0-.69-.18-1.04-.54-1.21-1.22-2.47-4.66-2.41-10.66l.02-1.71-1.21,1.21c-3.52,3.51-6.9,5.6-9.05,5.6-1.09,0-1.31-.57-1.38-.75-.59-1.54,.99-5.21,5.87-9.63l-.4-.45,.63-.16-.02-.08-.02-.08-.64,.16,.11-.59c-.81-.15-1.88-.2-3.12-.27-3.57-.19-8.47-.44-8.66-3.28,0-.09-.01-.23,0-.34,.47-2.37,4.17-2.72,7.43-3.03,1.35-.13,2.62-.25,3.68-.5l1.19-.28-.84-.89C6.86,11.45,6.22,8.15,6.68,7.09c.07-.15,.26-.61,1.2-.61,2.09,0,5.55,2.12,9.26,5.67l.91,.87,.26-1.23c.2-.98,.28-2.17,.36-3.44,.26-4.14,.67-7.33,3.3-7.67m0-.7c-4.68,.5-3.58,8.01-4.34,11.67-4.28-4.1-7.71-5.87-9.75-5.87-3.32,0-2.88,4.73,3.79,11.78-3.78,.89-10.85,.13-11.64,4.07-.03,.17-.03,.35-.02,.52,.31,4.52,9.1,3.6,12.35,4.19,0-.02-.01-.04-.01-.06h0s0,0,0,0c0,0,0,0,0,0,0,0,0,0,0,0,0,0,0,0,0,0h0s0,0,0,0c0,0,0,0,0,0,0,0,0,0,0,0,0,0,0,0,0,0,0-.01,0-.02,0-.02h0s0,0,0,0h0s0,0,0,.02c0,0,0,0,0,0,0,0,0,0,0,0,0,0,0,0,0,0,0,0,0,0,0,0,0,0,0,0,0,0,0,0,0,0,0,0,0,0,0,0,0,0,0,0,0,0,0,0,0,0,0,0,0,0,0,0,0,0,0,0,0,.02,.01,.06,.02,.09,0,.04,.01,.05,.01,.05,0,0,0-.02-.01-.05,0,0,0-.02,0-.03-7.2,6.53-7.58,11.6-4.03,11.6,2.05,0,5.42-1.7,9.54-5.81-.08,7.81,2.03,11.91,4.15,11.91,2.01,0,4.02-3.68,4.17-11.38,2.95,1.46,5.92,5.26,9.2,5.26,.54,0,1.09-.1,1.65-.34,.33-.14,.59-.41,.71-.75,1.44-4.13-3.26-7.45-5.55-10.89,.34,0,.67,.01,.99,.01,14.28,0,14.78-8.01-.62-8.34,1.66-2.92,7.55-8.67,4.85-11.23-.54-.51-1.16-.73-1.84-.73-2.85,0-6.65,3.85-9.33,5.71-.61-3.46,.43-10.95-4.27-11.41h0Z"/></svg>