<svg width="21" height="21" viewBox="0 0 21 21" fill="none" xmlns="http://www.w3.org/2000/svg">
<mask id="mask0_144_5412" style="mask-type:alpha" maskUnits="userSpaceOnUse" x="0" y="0" width="21" height="21">
<rect width="21" height="21" fill="#D9D9D9"/>
</mask>
<g mask="url(#mask0_144_5412)">
<path d="M11.1562 11.1092V7.65622C11.1562 7.46999 11.0934 7.31409 10.9677 7.18853C10.8421 7.06282 10.6862 6.99997 10.5 6.99997C10.3137 6.99997 10.1578 7.06282 10.0323 7.18853C9.90657 7.31409 9.84372 7.46999 9.84372 7.65622V11.3111C9.84372 11.4165 9.86282 11.5169 9.90103 11.6123C9.93909 11.7075 9.9991 11.7961 10.0811 11.8781L12.6404 14.4375C12.7615 14.5587 12.9137 14.6206 13.0972 14.6234C13.2806 14.6262 13.4357 14.5642 13.5625 14.4375C13.6892 14.3107 13.7526 14.157 13.7526 13.9763C13.7526 13.7958 13.6892 13.6422 13.5625 13.5154L11.1562 11.1092ZM10.5 18.8125C9.46791 18.8125 8.50096 18.6173 7.59913 18.2269C6.69715 17.8365 5.91074 17.3059 5.23991 16.635C4.56907 15.9642 4.03846 15.1778 3.64806 14.2758C3.25767 13.374 3.06247 12.407 3.06247 11.375C3.06247 10.3429 3.25767 9.37596 3.64806 8.47412C4.03846 7.57215 4.56907 6.78574 5.23991 6.11491C5.91074 5.44407 6.69715 4.91346 7.59913 4.52306C8.50096 4.13267 9.46791 3.93747 10.5 3.93747C11.532 3.93747 12.499 4.13267 13.4008 4.52306C14.3028 4.91346 15.0892 5.44407 15.76 6.11491C16.4309 6.78574 16.9615 7.57215 17.3519 8.47412C17.7423 9.37596 17.9375 10.3429 17.9375 11.375C17.9375 12.407 17.7423 13.374 17.3519 14.2758C16.9615 15.1778 16.4309 15.9642 15.76 16.635C15.0892 17.3059 14.3028 17.8365 13.4008 18.2269C12.499 18.6173 11.532 18.8125 10.5 18.8125ZM2.11353 6.37062C1.98666 6.24389 1.92322 6.09019 1.92322 5.9095C1.92322 5.72896 1.98666 5.57532 2.11353 5.44859L4.57359 2.98853C4.69478 2.86734 4.84703 2.80536 5.03034 2.80259C5.2138 2.79968 5.3689 2.86166 5.49562 2.98853C5.62235 3.11526 5.68572 3.2689 5.68572 3.44944C5.68572 3.63012 5.62235 3.78383 5.49562 3.91056L3.03556 6.37062C2.91437 6.49181 2.76212 6.55379 2.57881 6.55656C2.39535 6.55933 2.24026 6.49735 2.11353 6.37062ZM18.8864 6.37062C18.7597 6.49735 18.606 6.56072 18.4255 6.56072C18.2448 6.56072 18.0911 6.49735 17.9644 6.37062L15.5043 3.91056C15.3831 3.78937 15.3211 3.63712 15.3184 3.45381C15.3156 3.27035 15.3776 3.11526 15.5043 2.98853C15.631 2.86166 15.7847 2.79822 15.9654 2.79822C16.146 2.79822 16.2996 2.86166 16.4263 2.98853L18.8864 5.44859C19.0076 5.56978 19.0696 5.72203 19.0723 5.90534C19.0753 6.0888 19.0133 6.24389 18.8864 6.37062Z" fill="#354035"/>
</g>
</svg>
