<svg width="18" height="22" viewBox="0 0 18 22" fill="none" xmlns="http://www.w3.org/2000/svg">
<path d="M4.18756 21.2916C3.27269 21.2916 2.49188 20.9683 1.84513 20.3215C1.19838 19.6748 0.875 18.894 0.875 17.9791V4.22915C0.875 3.25144 1.21733 2.42016 1.902 1.73531C2.58685 1.05065 3.41813 0.708313 4.39583 0.708313H15.1666C15.7052 0.708313 16.1663 0.900063 16.5498 1.28356C16.9333 1.66706 17.125 2.12811 17.125 2.66671V15.8186C17.125 15.9472 17.075 16.0638 16.975 16.1683C16.8749 16.2727 16.7132 16.3728 16.4896 16.4686C16.1744 16.5811 15.9202 16.7726 15.727 17.0431C15.5339 17.3136 15.4374 17.6256 15.4374 17.9791C15.4374 18.3263 15.5322 18.6378 15.7218 18.9135C15.9114 19.1892 16.1638 19.3812 16.4791 19.4895C16.6833 19.57 16.842 19.6831 16.9552 19.8286C17.0684 19.974 17.125 20.1297 17.125 20.2958V20.4624C17.125 20.6917 17.0471 20.8872 16.8913 21.049C16.7356 21.2108 16.5427 21.2916 16.3125 21.2916H4.18756ZM5.68798 14.6668C5.91819 14.6668 6.11111 14.5889 6.26675 14.4331C6.42221 14.2774 6.49994 14.0845 6.49994 13.8543V3.14581C6.49994 2.9156 6.42203 2.72259 6.26621 2.56677C6.11039 2.41113 5.91738 2.33331 5.68717 2.33331C5.45678 2.33331 5.26385 2.41113 5.1084 2.56677C4.95276 2.72259 4.87494 2.9156 4.87494 3.14581V13.8543C4.87494 14.0845 4.95285 14.2774 5.10867 14.4331C5.26449 14.5889 5.45759 14.6668 5.68798 14.6668ZM4.18756 19.6666H14.3105C14.1534 19.4207 14.0312 19.1593 13.9438 18.8823C13.8562 18.6052 13.8124 18.3041 13.8124 17.9791C13.8124 17.6694 13.8534 17.3722 13.9354 17.0875C14.0174 16.8028 14.1424 16.5374 14.3105 16.2915H4.18756C3.70422 16.2915 3.30212 16.4556 2.98127 16.7839C2.66042 17.112 2.5 17.5104 2.5 17.9791C2.5 18.4624 2.66042 18.8645 2.98127 19.1854C3.30212 19.5062 3.70422 19.6666 4.18756 19.6666Z" fill="#D4D4D4"/>
</svg>
