<svg width="24" height="24" viewBox="0 0 24 24" fill="none" xmlns="http://www.w3.org/2000/svg">
<mask id="mask0_143_5367" style="mask-type:alpha" maskUnits="userSpaceOnUse" x="0" y="0" width="24" height="24">
<rect width="24" height="24" fill="#D9D9D9"/>
</mask>
<g mask="url(#mask0_143_5367)">
<path d="M5.30775 21.5C4.81058 21.5 4.385 21.323 4.031 20.969C3.677 20.615 3.5 20.1894 3.5 19.6923V6.30775C3.5 5.81058 3.677 5.385 4.031 5.031C4.385 4.677 4.81058 4.5 5.30775 4.5H18.6923C19.1894 4.5 19.615 4.677 19.969 5.031C20.323 5.385 20.5 5.81058 20.5 6.30775V19.6923C20.5 20.1894 20.323 20.615 19.969 20.969C19.615 21.323 19.1894 21.5 18.6923 21.5H5.30775ZM5 15.5H19V6.30775C19 6.23075 18.9679 6.16025 18.9038 6.09625C18.8398 6.03208 18.7692 6 18.6923 6H5.30775C5.23075 6 5.16025 6.03208 5.09625 6.09625C5.03208 6.16025 5 6.23075 5 6.30775V15.5Z" fill="#1C1B1F"/>
</g>
</svg>
