<svg width="21" height="21" viewBox="0 0 21 21" fill="none" xmlns="http://www.w3.org/2000/svg">
<mask id="mask0_144_5394" style="mask-type:alpha" maskUnits="userSpaceOnUse" x="0" y="0" width="21" height="21">
<rect width="21" height="21" fill="#D9D9D9"/>
</mask>
<g mask="url(#mask0_144_5394)">
<path d="M11.1562 10.2342V6.78125C11.1562 6.59531 11.0933 6.43942 10.9675 6.31356C10.8416 6.18785 10.6857 6.125 10.4998 6.125C10.3137 6.125 10.1579 6.18785 10.0323 6.31356C9.9066 6.43942 9.84375 6.59531 9.84375 6.78125V10.4361C9.84375 10.5391 9.86285 10.6388 9.90106 10.7354C9.93913 10.8319 9.99914 10.9212 10.0811 11.0031L13.078 14C13.199 14.1212 13.3513 14.1832 13.5347 14.1859C13.7182 14.1887 13.8733 14.1267 14 14C14.1267 13.8733 14.1901 13.7196 14.1901 13.5389C14.1901 13.3583 14.1267 13.2047 14 13.078L11.1562 10.2342ZM10.5015 18.8125C9.35178 18.8125 8.27108 18.5943 7.25944 18.158C6.24779 17.7217 5.36783 17.1295 4.61956 16.3815C3.87129 15.6336 3.27884 14.754 2.84222 13.7428C2.40574 12.7315 2.1875 11.6511 2.1875 10.5015C2.1875 9.35178 2.40567 8.27108 2.842 7.25944C3.27833 6.24779 3.87049 5.36783 4.61847 4.61956C5.36645 3.87129 6.24604 3.27884 7.25725 2.84222C8.26846 2.40574 9.34886 2.1875 10.4985 2.1875C11.6482 2.1875 12.7289 2.40567 13.7406 2.842C14.7522 3.27833 15.6322 3.87049 16.3804 4.61847C17.1287 5.36645 17.7212 6.24604 18.1578 7.25725C18.5943 8.26846 18.8125 9.34886 18.8125 10.4985C18.8125 11.6482 18.5943 12.7289 18.158 13.7406C17.7217 14.7522 17.1295 15.6322 16.3815 16.3804C15.6336 17.1287 14.754 17.7212 13.7428 18.1578C12.7315 18.5943 11.6511 18.8125 10.5015 18.8125Z" fill="#354035"/>
</g>
</svg>
