<svg width="23" height="23" viewBox="0 0 23 23" fill="none" xmlns="http://www.w3.org/2000/svg">
<mask id="mask0_143_5356" style="mask-type:alpha" maskUnits="userSpaceOnUse" x="0" y="0" width="23" height="23">
<rect width="23" height="23" fill="#D9D9D9"/>
</mask>
<g mask="url(#mask0_143_5356)">
<path d="M12.4068 11.5L8.50324 7.5967C8.37067 7.46397 8.30279 7.29714 8.2996 7.09621C8.29656 6.89544 8.36444 6.72557 8.50324 6.58662C8.6422 6.44782 8.81055 6.37842 9.00828 6.37842C9.20602 6.37842 9.37437 6.44782 9.51332 6.58662L13.8203 10.8936C13.9099 10.9834 13.9732 11.078 14.0101 11.1775C14.047 11.277 14.0654 11.3845 14.0654 11.5C14.0654 11.6155 14.047 11.723 14.0101 11.8225C13.9732 11.922 13.9099 12.0166 13.8203 12.1064L9.51332 16.4134C9.3806 16.5459 9.21377 16.6138 9.01284 16.617C8.81206 16.62 8.6422 16.5522 8.50324 16.4134C8.36444 16.2744 8.29504 16.1061 8.29504 15.9083C8.29504 15.7106 8.36444 15.5422 8.50324 15.4033L12.4068 11.5Z" fill="#AEAEB2"/>
</g>
</svg>
