<svg width="26" height="26" viewBox="0 0 26 26" fill="none" xmlns="http://www.w3.org/2000/svg">
<path d="M21.8348 12.9545C22.9491 13.4191 23.7058 14.0444 23.9143 15.1552C23.953 15.3696 23.9769 15.587 23.9769 15.8044C23.9828 17.5376 23.9798 19.2708 23.9828 21.004C23.9828 22.7699 22.8686 23.9432 21.099 23.973C19.3472 24.0028 17.5895 24.0147 15.8377 23.973C14.4762 23.9403 13.508 23.2732 13.0492 21.8378C12.9271 22.0195 12.8377 22.1118 12.793 22.2249C12.2955 23.4519 11.3153 23.9551 10.0641 23.976C8.35102 24.0028 6.63501 23.9939 4.92197 23.9819C3.15531 23.9671 2.01726 22.8056 2.01428 21.0397C2.01428 19.3661 2.04705 17.6925 2.00237 16.0188C1.96364 14.5298 2.38966 13.3952 4.08184 12.9456C3.81669 12.8145 3.66476 12.7401 3.51282 12.6627C2.53266 12.1594 2.0411 11.3255 2.02322 10.2535C1.99045 8.28205 1.99641 6.30765 2.01726 4.33622C2.03216 2.96338 3.00337 2.0134 4.36784 2.00744C6.32219 1.99851 8.27356 2.01042 10.2279 2.00149C11.4673 1.99553 12.2955 2.58219 12.787 3.69298C12.8168 3.7585 12.8645 3.81806 12.9598 3.96993C13.0581 3.76147 13.1296 3.6364 13.1743 3.50239C13.4842 2.61495 14.3124 2.00744 15.2598 2.00447C17.2737 1.99851 19.2846 1.99851 21.2986 2.00447C22.809 2.01042 23.9501 3.1093 23.9739 4.63402C24.0037 6.50717 24.0156 8.38032 23.9679 10.2505C23.9381 11.3851 23.4257 12.2725 22.3175 12.7282C22.1923 12.7788 22.0732 12.8443 21.8348 12.9605V12.9545ZM12.9866 10.8848C12.6321 11.9509 11.8635 12.5316 10.7612 12.9605C11.8575 13.3208 12.5487 13.9283 12.9628 14.917C13.2786 13.8509 13.9757 13.2493 15.0661 12.9307C14.0711 12.478 13.3531 11.8943 12.9866 10.8848Z" fill="#E5E5EA"/>
</svg>
